<?xml version="1.0" encoding="UTF-8" standalone="no"?>
<svg
   xmlns:dc="http://purl.org/dc/elements/1.1/"
   xmlns:cc="http://creativecommons.org/ns#"
   xmlns:rdf="http://www.w3.org/1999/02/22-rdf-syntax-ns#"
   xmlns:svg="http://www.w3.org/2000/svg"
   xmlns="http://www.w3.org/2000/svg"
   xmlns:sodipodi="http://sodipodi.sourceforge.net/DTD/sodipodi-0.dtd"
   xmlns:inkscape="http://www.inkscape.org/namespaces/inkscape"
   width="112.02088mm"
   height="133.34932mm"
   viewBox="0 0 112.02088 133.34932"
   version="1.1"
   id="svg8"
   inkscape:version="1.0.1 (3bc2e813f5, 2020-09-07)"
   sodipodi:docname="Awareness-icon.svg">
  <defs
     id="defs2" />
  <sodipodi:namedview
     id="base"
     pagecolor="#ffffff"
     bordercolor="#666666"
     borderopacity="1.0"
     inkscape:pageopacity="0.0"
     inkscape:pageshadow="2"
     inkscape:zoom="1.4"
     inkscape:cx="235.57134"
     inkscape:cy="264.41525"
     inkscape:document-units="mm"
     inkscape:current-layer="g16411"
     inkscape:document-rotation="0"
     showgrid="false"
     inkscape:window-width="1851"
     inkscape:window-height="1057"
     inkscape:window-x="61"
     inkscape:window-y="-8"
     inkscape:window-maximized="1" />
  <metadata
     id="metadata5">
    <rdf:RDF>
      <cc:Work
         rdf:about="">
        <dc:format>image/svg+xml</dc:format>
        <dc:type
           rdf:resource="http://purl.org/dc/dcmitype/StillImage" />
        <dc:title />
      </cc:Work>
    </rdf:RDF>
  </metadata>
  <g
     inkscape:label="Layer 1"
     inkscape:groupmode="layer"
     id="layer1"
     transform="translate(-53.478365,-70.281774)">
    <g
       id="g843"
       transform="matrix(0.03527778,0,0,-0.03527778,-614.68307,666.97775)">
      <g
         id="g16411"
         transform="matrix(14.999999,0,0,-14.999999,18607.713,16944.235)">
        <path
           d="m 166.513,172.127 -13.388,-0.017 -23.947,-0.031 c 0.023,-0.385 -0.001,-0.766 0,-1.156 v -37.732 h -41.35 v 37.679 c -0.001,0.391 -0.022,0.772 0,1.156 L 63.83,171.995 50.442,171.978 C 35.98,171.959 24.24,183.669 24.222,198.131 L 24.153,252 h 168.445 l 0.069,-53.653 c 0.018,-14.462 -11.691,-26.202 -26.154,-26.22 z"
           fill="#7bac51"
           id="path16305"
           style="fill:#e63946;fill-opacity:1" />
        <path
           d="m 87.828,133.191 h 41.35 v 39.753 c 0,11.419 -9.257,20.675 -20.675,20.675 -11.419,0 -20.675,-9.257 -20.675,-20.675 z"
           fill="#ff9f70"
           id="path16307"
           style="fill:#f1faee;fill-opacity:1" />
        <path
           d="M 108.503,195.619 C 96,195.619 85.828,185.447 85.828,172.943 V 133.19 c 0,-1.104 0.896,-2 2,-2 h 41.351 c 1.104,0 2,0.896 2,2 v 39.753 c 0,12.504 -10.172,22.676 -22.676,22.676 z M 89.828,135.19 v 37.753 c 0,10.298 8.378,18.676 18.675,18.676 10.297,0 18.675,-8.378 18.675,-18.676 V 135.19 Z"
           fill="#690589"
           id="path16309"
           style="fill:#1d3557;fill-opacity:1" />
        <path
           d="m 147.561,37.997 v -1.619 c 0,-6.786 -4.126,-12.609 -10.006,-15.096 -6.703,-2.835 -13.215,-6.1 -19.166,-10.289 L 108.477,4.016 V 4 L 108.465,4.009 108.452,4 v 0.017 l -9.912,6.977 c -5.951,4.189 -12.464,7.454 -19.166,10.289 -5.88,2.487 -10.006,8.309 -10.006,15.096 v 1.619 c -9.554,0 -17.081,8.141 -16.333,17.666 l 2.79,35.54 h 52.627 0.024 52.627 l 2.79,-35.54 c 0.748,-9.526 -6.779,-17.667 -16.332,-17.667 z"
           fill="#fcc24c"
           id="path16311"
           style="fill:#457b9d;fill-opacity:1" />
        <path
           d="m 147.561,37.997 v -1.619 c 0,-6.786 -4.126,-12.609 -10.006,-15.096 -6.703,-2.835 -13.215,-6.1 -19.166,-10.289 l -9.898,-6.966 c 3.861,7.918 13.323,14.423 20.017,17.255 5.88,2.487 10.006,8.309 10.006,15.096 0,0.882 0.675,1.609 1.553,1.691 8.802,0.825 15.487,8.591 14.78,17.593 l -2.79,35.54 h 9.046 l 2.79,-35.54 c 0.748,-9.524 -6.779,-17.665 -16.332,-17.665 z"
           fill="#dea42e"
           id="path16313"
           style="fill:#457b9d;fill-opacity:1" />
        <path
           d="m 69.367,37.997 v -1.619 c 0,-6.786 4.126,-12.609 10.006,-15.096 6.703,-2.835 13.215,-6.1 19.166,-10.289 l 9.898,-6.966 c -3.861,7.918 -13.323,14.423 -20.017,17.255 -5.88,2.487 -10.006,8.309 -10.006,15.096 0,0.882 -0.675,1.609 -1.553,1.691 -8.802,0.825 -15.487,8.591 -14.78,17.593 l 2.79,35.54 h -9.046 l -2.79,-35.54 C 52.287,46.138 59.814,37.997 69.367,37.997 Z"
           fill="#fce06a"
           id="path16315"
           style="fill:#457b9d;fill-opacity:1" />
        <path
           d="M 192.598,254 H 24.153 c -0.531,0 -1.04,-0.211 -1.415,-0.587 -0.375,-0.375 -0.585,-0.885 -0.585,-1.416 l 0.068,-53.869 c 0.02,-15.529 12.661,-28.149 28.186,-28.149 h 0.037 l 35.384,0.045 V 133.19 c 0,-1.104 0.896,-2 2,-2 h 41.351 c 1.104,0 2,0.896 2,2 v 36.892 l 35.338,0.045 c 15.541,0.02 28.169,12.681 28.149,28.223 l -0.068,53.653 c -0.001,1.103 -0.897,1.997 -2,1.997 z M 26.156,250 h 164.445 l 0.065,-51.656 c 0.018,-13.336 -10.818,-24.199 -24.155,-24.217 l -37.335,-0.048 c -0.55,-0.001 -1.076,-0.229 -1.453,-0.629 -0.377,-0.4 -0.573,-0.938 -0.541,-1.487 0.012,-0.199 0.006,-0.396 0.002,-0.596 l -0.005,-0.449 V 135.19 H 89.828 l -0.005,36.099 c -0.004,0.209 -0.01,0.415 0.002,0.623 0.032,0.55 -0.165,1.089 -0.543,1.488 -0.378,0.399 -0.903,0.626 -1.453,0.626 -10e-4,0 -0.002,0 -0.002,0 l -37.386,-0.048 c -0.01,0 -0.022,0 -0.032,0 -13.323,0 -24.169,10.828 -24.186,24.155 z"
           fill="#690589"
           id="path16321"
           style="fill:#1d3557;fill-opacity:1" />
        <path
           d="m 32.564,211.652 c -1.104,0 -2,-0.896 -2,-2 v -12 c 0,-1.104 0.896,-2 2,-2 1.104,0 2,0.896 2,2 v 12 c 0,1.105 -0.896,2 -2,2 z"
           fill="#690589"
           id="path16323"
           style="fill:#1d3557;fill-opacity:1" />
        <path
           d="M 161.104,93.202 H 55.825 c -1.044,0 -1.912,-0.803 -1.994,-1.844 l -2.79,-35.54 C 50.641,50.725 52.4,45.652 55.869,41.9 58.883,38.64 62.992,36.588 67.369,36.106 67.475,28.811 71.857,22.29 78.594,19.44 86.236,16.208 92.208,13.004 97.388,9.358 l 9.787,-6.89 c 0.111,-0.092 0.232,-0.173 0.364,-0.24 0.355,-0.183 0.75,-0.252 1.132,-0.213 0.244,0.024 0.485,0.094 0.71,0.209 0.135,0.069 0.261,0.152 0.375,0.248 l 9.783,6.886 c 5.181,3.646 11.152,6.851 18.794,10.082 6.736,2.85 11.118,9.371 11.225,16.666 4.378,0.482 8.487,2.534 11.501,5.794 3.468,3.752 5.228,8.825 4.828,13.918 l -2.79,35.54 c -0.081,1.041 -0.95,1.844 -1.993,1.844 z m -103.43,-4 h 101.58 L 161.9,55.506 c 0.318,-4.044 -1.023,-7.911 -3.777,-10.89 -2.754,-2.979 -6.505,-4.619 -10.562,-4.619 -1.104,0 -2,-0.896 -2,-2 v -1.619 c 0,-5.794 -3.448,-10.996 -8.785,-13.254 -7.91,-3.345 -14.118,-6.68 -19.538,-10.494 l -8.774,-6.176 -8.773,6.176 c -5.419,3.813 -11.627,7.148 -19.538,10.494 -5.337,2.258 -8.786,7.46 -8.786,13.254 v 1.619 c 0,1.104 -0.896,2 -2,2 -4.057,0 -7.807,1.641 -10.561,4.619 -2.753,2.979 -4.095,6.846 -3.778,10.89 z"
           fill="#690589"
           id="path16325"
           style="fill:#1d3557;fill-opacity:1" />
        <path
           d="m 63.803,84.019 h -3.188 c -8.241,0 -14.92,6.68 -14.92,14.921 0,8.24 6.68,14.92 14.92,14.92 h 3.188 z"
           fill="#ffbd8e"
           id="path16327"
           style="fill:#f1faee;fill-opacity:1" />
        <path
           d="m 156.287,84.019 h -3.188 v 29.841 h 3.188 c 8.24,0 14.92,-6.68 14.92,-14.92 0.001,-8.24 -6.679,-14.921 -14.92,-14.921 z"
           fill="#e18152"
           id="path16329"
           style="fill:#f1faee;fill-opacity:1" />
        <path
           d="m 108.451,159.868 c -24.659,0 -44.648,-20.249 -44.648,-45.228 V 83.328 c 0,-24.979 19.989,-45.228 44.648,-45.228 24.658,0 44.648,20.249 44.648,45.228 v 31.312 c 0,24.979 -19.989,45.228 -44.648,45.228 z"
           fill="#ff9f70"
           id="path16331"
           style="fill:#f1faee;fill-opacity:1" />
        <path
           d="m 108.451,161.868 c -25.722,0 -46.648,-21.187 -46.648,-47.229 V 83.328 c 0,-26.041 20.926,-47.228 46.648,-47.228 25.722,0 46.649,21.187 46.649,47.228 v 31.312 c 0,26.042 -20.927,47.228 -46.649,47.228 z m 0,-121.767 c -23.516,0 -42.648,19.392 -42.648,43.228 v 31.312 c 0,23.836 19.132,43.229 42.648,43.229 23.517,0 42.648,-19.393 42.648,-43.229 V 83.328 C 151.1,59.492 131.968,40.101 108.451,40.101 Z"
           fill="#690589"
           id="path16337"
           style="fill:#1d3557;fill-opacity:1" />
        <path
           d="m 63.803,115.86 h -3.188 c -9.33,0 -16.92,-7.591 -16.92,-16.921 0,-9.33 7.59,-16.92 16.92,-16.92 h 3.188 c 1.104,0 2,0.896 2,2 v 29.841 c 0,1.105 -0.895,2 -2,2 z M 60.616,86.02 c -7.125,0 -12.92,5.796 -12.92,12.92 0,7.125 5.796,12.921 12.92,12.921 h 1.188 V 86.02 Z"
           fill="#690589"
           id="path16339"
           style="fill:#1d3557;fill-opacity:1" />
        <path
           d="M 156.287,115.86 H 153.1 c -1.104,0 -2,-0.896 -2,-2 V 84.02 c 0,-1.104 0.896,-2 2,-2 h 3.188 c 9.33,0 16.921,7.59 16.921,16.92 0,9.33 -7.592,16.92 -16.922,16.92 z m -1.187,-4 h 1.188 c 7.125,0 12.921,-5.796 12.921,-12.921 0,-7.124 -5.796,-12.92 -12.921,-12.92 H 155.1 Z"
           fill="#690589"
           id="path16341"
           style="fill:#1d3557;fill-opacity:1" />
        <path
           d="m 152.099,231.816 -10.584,5.564 2.021,-11.786 -8.563,-8.347 11.834,-1.72 5.292,-10.723 5.293,10.723 11.834,1.72 -8.563,8.347 2.021,11.786 z"
           fill="#fcc24c"
           id="path16343"
           style="fill:#a8dadc;fill-opacity:1" />
        <path
           d="m 162.685,239.38 c -0.318,0 -0.638,-0.076 -0.931,-0.229 l -9.654,-5.075 -9.654,5.075 c -0.674,0.354 -1.489,0.295 -2.106,-0.152 -0.615,-0.447 -0.924,-1.206 -0.796,-1.956 l 1.844,-10.75 -7.81,-7.612 c -0.546,-0.532 -0.742,-1.326 -0.507,-2.051 0.235,-0.724 0.861,-1.252 1.614,-1.361 l 10.794,-1.568 4.828,-9.78 c 0.337,-0.683 1.032,-1.115 1.793,-1.115 0.762,0 1.457,0.433 1.794,1.115 l 4.826,9.78 10.794,1.568 c 0.753,0.109 1.379,0.638 1.614,1.361 0.235,0.725 0.039,1.519 -0.506,2.051 l -7.81,7.612 1.844,10.75 c 0.128,0.75 -0.181,1.509 -0.796,1.956 -0.348,0.252 -0.761,0.381 -1.175,0.381 z M 152.1,229.815 c 0.319,0 0.64,0.076 0.931,0.229 l 6.998,3.679 -1.337,-7.792 c -0.11,-0.648 0.104,-1.311 0.575,-1.771 l 5.661,-5.518 -7.824,-1.137 c -0.651,-0.095 -1.214,-0.504 -1.506,-1.095 l -3.498,-7.089 -3.5,7.089 c -0.291,0.591 -0.854,1 -1.505,1.095 l -7.824,1.137 5.661,5.518 c 0.472,0.46 0.687,1.122 0.576,1.771 l -1.337,7.792 6.998,-3.679 c 0.291,-0.152 0.611,-0.229 0.931,-0.229 z"
           fill="#690589"
           id="path16345"
           style="fill:#1d3557;fill-opacity:1" />
        <path
           d="m 231.847,33.729 c 0,-16.804 -13.942,-30.352 -30.89,-29.707 -15.338,0.584 -27.864,13.032 -28.538,28.366 -0.528,12.011 6.078,22.528 15.932,27.688 v 17.582 c 0,7.603 6.164,13.767 13.767,13.767 7.603,0 13.767,-6.164 13.767,-13.767 V 60.076 c 9.486,-4.967 15.962,-14.898 15.962,-26.347 z"
           fill="#fcc24c"
           id="path16347"
           style="fill:#f1faee;fill-opacity:1" />
        <path
           d="m 188.351,77.658 c 0,7.603 6.164,13.767 13.767,13.767 7.603,0 13.767,-6.164 13.767,-13.767 V 60.076 h -27.534 z"
           fill="#ff4397"
           id="path16353"
           style="fill:#e63946;fill-opacity:1" />
        <path
           d="m 210.823,60.076 v 17.582 c 0,6.738 -4.843,12.335 -11.236,13.525 0.408,0.076 0.822,0.136 1.241,0.177 0.401,0.037 0.806,0.059 1.216,0.061 0.025,0 0.049,0.004 0.073,0.004 7.603,0 13.767,-6.164 13.767,-13.767 V 60.076 Z"
           fill="#e12579"
           id="path16355"
           style="fill:#e63946;fill-opacity:1" />
        <path
           d="m 193.413,60.076 v 17.582 c 0,6.738 4.843,12.335 11.236,13.525 -0.408,0.076 -0.822,0.136 -1.241,0.177 -0.401,0.037 -0.807,0.059 -1.217,0.061 -0.025,0 -0.049,0.004 -0.073,0.004 -7.603,0 -13.767,-6.164 -13.767,-13.767 V 60.076 Z"
           fill="#ff61b5"
           id="path16357"
           style="fill:#e63946;fill-opacity:1" />
        <g
           fill="#690589"
           id="g16369">
          <path
             d="m 202.118,93.425 c -8.694,0 -15.768,-7.073 -15.768,-15.767 V 61.26 C 176.119,55.383 169.899,44.151 170.42,32.3 171.139,15.945 184.519,2.646 200.88,2.024 c 8.715,-0.323 16.97,2.809 23.239,8.844 6.272,6.038 9.727,14.157 9.727,22.861 0,11.435 -6.085,21.873 -15.961,27.532 v 16.397 c 0.001,8.694 -7.073,15.767 -15.767,15.767 z M 202.128,6 c -0.364,0 -0.729,0.007 -1.095,0.021 -14.297,0.543 -25.988,12.163 -26.616,26.454 -0.472,10.716 5.362,20.854 14.861,25.829 0.659,0.345 1.072,1.027 1.072,1.771 v 17.582 c 0,6.488 5.279,11.767 11.768,11.767 6.489,0 11.768,-5.278 11.768,-11.767 V 60.076 c 0,-0.744 0.413,-1.427 1.072,-1.771 9.184,-4.81 14.889,-14.227 14.889,-24.576 0,-7.606 -3.019,-14.702 -8.501,-19.979 C 216.131,8.729 209.342,6 202.128,6 Z"
             id="path16359"
             style="fill:#1d3557;fill-opacity:1" />
          <path
             d="m 202.118,93.425 c -8.694,0 -15.768,-7.073 -15.768,-15.767 V 60.076 c 0,-1.104 0.896,-2 2,-2 h 27.535 c 1.104,0 2,0.896 2,2 v 17.582 c 0.001,8.694 -7.073,15.767 -15.767,15.767 z M 190.351,62.076 v 15.582 c 0,6.488 5.279,11.767 11.768,11.767 6.489,0 11.768,-5.278 11.768,-11.767 V 62.076 Z"
             id="path16361"
             style="fill:#1d3557;fill-opacity:1" />
          <path
             d="m 215.299,71.337 h -26.361 c -1.104,0 -2,-0.896 -2,-2 0,-1.104 0.896,-2 2,-2 h 26.361 c 1.104,0 2,0.896 2,2 0,1.104 -0.896,2 -2,2 z"
             id="path16363"
             style="fill:#1d3557;fill-opacity:1" />
          <path
             d="m 215.299,81.417 h -26.361 c -1.104,0 -2,-0.896 -2,-2 0,-1.104 0.896,-2 2,-2 h 26.361 c 1.104,0 2,0.896 2,2 0,1.104 -0.896,2 -2,2 z"
             id="path16365"
             style="fill:#1d3557;fill-opacity:1" />
          <path
             d="M 200.204,39.05 V 22.055 c 0,-1.263 1.052,-2.314 2.314,-2.314 1.262,0 2.272,1.052 2.272,2.314 V 39.05 c 0,1.305 -1.01,2.313 -2.272,2.313 -1.262,0 -2.314,-1.008 -2.314,-2.313 z m 2.314,10.139 c -1.263,0 -2.314,-1.01 -2.314,-2.314 v -0.842 c 0,-1.262 1.052,-2.314 2.314,-2.314 1.262,0 2.272,1.052 2.272,2.314 v 0.842 c 0,1.304 -1.01,2.314 -2.272,2.314 z"
             id="path16367"
             style="fill:#1d3557;fill-opacity:1" />
        </g>
      </g>
    </g>
  </g>
</svg>
