<?xml version="1.0" encoding="UTF-8"?>
<svg data-bbox="2 1 60 61" xmlns="http://www.w3.org/2000/svg" width="512" viewBox="0 0 64 64" height="512" data-type="color">
    <g>
        <path fill="#a8dba8" d="M3 55h34v2a4 4 0 0 1-4 4H7a4 4 0 0 1-4-4v-2z" data-color="1"/>
        <path fill="#cff09e" d="M10 41v-8H6v22h28v-4H20a10 10 0 0 1-10-10z" data-color="2"/>
        <path fill="#cff09e" d="M61 36v12a2 2 0 0 1-2 2H47a2 2 0 0 1-2-2V36a2 2 0 0 1 2-2h12a2 2 0 0 1 2 2z" data-color="2"/>
        <path fill="#79bd9a" d="M56 42a3 3 0 1 1-6 0 3 3 0 0 1 6 0z" data-color="3"/>
        <path fill="#aae1f9" d="M55 41a1 1 0 1 1-2 0 1 1 0 0 1 2 0z" data-color="4"/>
        <path fill="#79bd9a" d="M35 10a8 8 0 1 1-16 0 8 8 0 0 1 16 0z" data-color="3"/>
        <path fill="#cff09e" d="M25 13V7l6 3z" data-color="2"/>
        <path fill="#cff09e" d="M48 8V3h-1a2 2 0 0 0-2 2v12a2 2 0 0 0 2 2h12a2 2 0 0 0 2-2v-1h-5a8 8 0 0 1-8-8z" data-color="2"/>
        <path fill="#cff09e" d="M6 19v-7H3v16h12v-3h-3a6 6 0 0 1-6-6z" data-color="2"/>
        <path fill="#79bd9a" d="M19.062 43.165l3.464-2 4 6.928a2 2 0 0 1-.732 2.732 2 2 0 0 1-2.732-.732l-4-6.928z" data-color="3"/>
        <path fill="#cff09e" d="M40.25 37.86l-17.09 6.4-5-8.66L32.25 24z" data-color="2"/>
        <path fill="#a8dba8" d="M13.834 38.101l4.33-2.5 5 8.66-4.33 2.5a3 3 0 0 1-4.098-1.097l-2-3.465a3 3 0 0 1 1.098-4.098z" data-color="1"/>
        <path fill="#79bd9a" d="M10.997 43.197l1.732-1 2 3.464-1.732 1a2 2 0 0 1-2.732-.732 2 2 0 0 1 .732-2.732z" data-color="3"/>
        <path d="M56 6h-2a3 3 0 0 0-3 3v1h-1a1 1 0 0 0 0 2h1v3a1 1 0 0 0 2 0v-3h1a1 1 0 0 0 0-2h-1V9a1 1 0 0 1 1-1h2a1 1 0 0 0 0-2z" fill="#3b8686" data-color="5"/>
        <path d="M59 2H47a3 3 0 0 0-3 3v12a3 3 0 0 0 3 3h12a3 3 0 0 0 3-3V5a3 3 0 0 0-3-3zm1 15a1 1 0 0 1-1 1H47a1 1 0 0 1-1-1V5a1 1 0 0 1 1-1h12a1 1 0 0 1 1 1z" fill="#3b8686" data-color="5"/>
        <path d="M59 33H47a3 3 0 0 0-3 3v12a3 3 0 0 0 3 3h12a3 3 0 0 0 3-3V36a3 3 0 0 0-3-3zm1 15a1 1 0 0 1-1 1H47a1 1 0 0 1-1-1V36a1 1 0 0 1 1-1h12a1 1 0 0 1 1 1z" fill="#3b8686" data-color="5"/>
        <path d="M53 38a4 4 0 1 0 4 4 4 4 0 0 0-4-4zm0 6a2 2 0 1 1 2-2 2 2 0 0 1-2 2z" fill="#3b8686" data-color="5"/>
        <path d="M24.47 13.85A1 1 0 0 0 25 14a1 1 0 0 0 .45-.11l6-3a1 1 0 0 0 0-1.78l-6-3A1 1 0 0 0 24 7v6a1 1 0 0 0 .47.85zM26 8.62L28.76 10 26 11.38z" fill="#3b8686" data-color="5"/>
        <path d="M27 19a9 9 0 1 0-9-9 9 9 0 0 0 9 9zm0-16a7 7 0 1 1-7 7 7 7 0 0 1 7-7z" fill="#3b8686" data-color="5"/>
        <path d="M37 23a1 1 0 0 0 .8-.4l3-4a1 1 0 0 0-1.6-1.2l-3 4a1 1 0 0 0 .2 1.4 1 1 0 0 0 .6.2z" fill="#3b8686" data-color="5"/>
        <path d="M39.2 26.6a1 1 0 0 0 .8.4 1 1 0 0 0 .6-.2l4-3a1 1 0 1 0-1.2-1.6l-4 3a1 1 0 0 0-.2 1.4z" fill="#3b8686" data-color="5"/>
        <path d="M49 28.8a1 1 0 0 0-1.2-.8l-5 1a1 1 0 0 0 .2 2h.2l5-1a1 1 0 0 0 .8-1.2z" fill="#3b8686" data-color="5"/>
        <path d="M3 29h12a1 1 0 0 0 1-1V12a1 1 0 0 0-1-1H3a1 1 0 0 0-1 1v16a1 1 0 0 0 1 1zm1-16h10v14H4z" fill="#3b8686" data-color="5"/>
        <path d="M11 15H9a1 1 0 0 0 0 2h2a1 1 0 0 0 0-2z" fill="#3b8686" data-color="5"/>
        <path d="M11 19H7a1 1 0 0 0 0 2h4a1 1 0 0 0 0-2z" fill="#3b8686" data-color="5"/>
        <path d="M11 23H7a1 1 0 0 0 0 2h4a1 1 0 0 0 0-2z" fill="#3b8686" data-color="5"/>
        <path d="M33.12 23.5a1 1 0 0 0-.69-.48 1 1 0 0 0-.82.21L21 32H6a1 1 0 0 0-1 1v21H3a1 1 0 0 0-1 1v2a5 5 0 0 0 5 5h26a5 5 0 0 0 5-5v-2a1 1 0 0 0-1-1h-2V40.89l5.6-2.1a1 1 0 0 0 .59-.6 1 1 0 0 0-.07-.83zm-9.53 21.67h.08l2 3.45a1 1 0 0 1 .1.76 1 1 0 0 1-.47.6 1 1 0 0 1-1.36-.36l-2-3.47zm-1.8-1.28l-3.46 2a2 2 0 0 1-1.52.2 2 2 0 0 1-1.21-.93l-2-3.46a2 2 0 0 1 .73-2.7l3.46-2 2 3.47zm-9.42-.33l1 1.73-.87.5a1 1 0 0 1-.76.1 1 1 0 0 1-.61-.46 1 1 0 0 1-.1-.76 1 1 0 0 1 .47-.61zM36 57a3 3 0 0 1-3 3h-2v-1a1 1 0 0 0-2 0v1H11v-1a1 1 0 0 0-2 0v1H7a3 3 0 0 1-3-3v-1h32zm-3-3H7V34h11.53l-.94.77-4.26 2.46a4 4 0 0 0-1.84 4.53l-1 .57a3 3 0 0 0 .72 5.5 3 3 0 0 0 .78.1 3.06 3.06 0 0 0 1.5-.4l1-.57a3.88 3.88 0 0 0 1.8 1.04 3.79 3.79 0 0 0 1.05.14 3.94 3.94 0 0 0 2-.54l.87-.5 2 3.47a3 3 0 0 0 4.09 1.1 3 3 0 0 0 1.1-4.1l-1.82-3.17L33 41.64zm-9.4-11l-2.07-3.59-2.08-3.6L32 25.52l6.82 11.81z" fill="#3b8686" data-color="5"/>
    </g>
</svg>
