<?xml version="1.0" encoding="UTF-8" standalone="no"?>
<svg
   xmlns:dc="http://purl.org/dc/elements/1.1/"
   xmlns:cc="http://creativecommons.org/ns#"
   xmlns:rdf="http://www.w3.org/1999/02/22-rdf-syntax-ns#"
   xmlns:svg="http://www.w3.org/2000/svg"
   xmlns="http://www.w3.org/2000/svg"
   xmlns:sodipodi="http://sodipodi.sourceforge.net/DTD/sodipodi-0.dtd"
   xmlns:inkscape="http://www.inkscape.org/namespaces/inkscape"
   width="90.768478mm"
   height="133.35001mm"
   viewBox="0 0 90.768478 133.35001"
   version="1.1"
   id="svg8"
   inkscape:version="1.0.1 (3bc2e813f5, 2020-09-07)"
   sodipodi:docname="Conversion-icon.svg">
  <defs
     id="defs2" />
  <sodipodi:namedview
     id="base"
     pagecolor="#ffffff"
     bordercolor="#666666"
     borderopacity="1.0"
     inkscape:pageopacity="0.0"
     inkscape:pageshadow="2"
     inkscape:zoom="1.979899"
     inkscape:cx="121.89102"
     inkscape:cy="332.84348"
     inkscape:document-units="mm"
     inkscape:current-layer="g16519"
     inkscape:document-rotation="0"
     showgrid="false"
     inkscape:window-width="1851"
     inkscape:window-height="1057"
     inkscape:window-x="61"
     inkscape:window-y="-8"
     inkscape:window-maximized="1" />
  <metadata
     id="metadata5">
    <rdf:RDF>
      <cc:Work
         rdf:about="">
        <dc:format>image/svg+xml</dc:format>
        <dc:type
           rdf:resource="http://purl.org/dc/dcmitype/StillImage" />
        <dc:title />
      </cc:Work>
    </rdf:RDF>
  </metadata>
  <g
     inkscape:label="Layer 1"
     inkscape:groupmode="layer"
     id="layer1"
     transform="translate(-58.93719,-81.491665)">
    <g
       id="g16519"
       transform="matrix(0.52916667,0,0,0.52916667,36.588252,80.433332)">
      <path
         d="m 99.592,54.919 -3.316,-0.005 -7.221,-0.009 c 0.007,-0.116 0,-0.231 0,-0.349 V 43.179 H 76.587 V 54.54 c 0,0.118 -0.007,0.233 0,0.349 L 69.351,54.88 66.035,54.875 c -4.361,-0.006 -7.9,3.525 -7.906,7.885 l -0.021,16.224 h 49.348 l 0.021,-16.159 c 0.006,-4.361 -3.524,-7.9 -7.885,-7.906 z"
         fill="#7bac51"
         id="path16413"
         style="fill:#a8dadc;fill-opacity:1" />
      <path
         d="m 190.006,54.919 -3.316,-0.005 -7.221,-0.009 c 0.007,-0.116 0,-0.231 0,-0.349 V 43.179 H 167.001 V 54.54 c 0,0.118 -0.007,0.233 0,0.349 l -7.236,-0.009 -3.316,-0.005 c -4.361,-0.006 -7.9,3.525 -7.906,7.885 l -0.021,16.224 h 49.348 l 0.021,-16.159 c 0.006,-4.361 -3.524,-7.9 -7.885,-7.906 z"
         fill="#7bac51"
         id="path16415"
         style="fill:#a8dadc;fill-opacity:1" />
      <path
         d="m 190.006,54.919 -3.316,-0.005 -4.307,-0.006 v 0.009 l 0.842,10e-4 c 4.361,0.006 7.891,3.545 7.886,7.906 l -0.021,16.159 h 6.781 l 0.021,-16.159 c 0.005,-4.36 -3.525,-7.899 -7.886,-7.905 z"
         fill="#5d8e33"
         id="path16417"
         style="fill:#a8dadc;fill-opacity:1" />
      <path
         d="m 65.994,54.919 3.316,-0.005 4.307,-0.006 v 0.009 l -0.842,10e-4 c -4.361,0.006 -7.891,3.545 -7.885,7.906 l 0.021,16.159 H 58.13 L 58.109,62.824 c -0.006,-4.36 3.524,-7.899 7.885,-7.905 z"
         fill="#99ca6f"
         id="path16419"
         style="fill:#a8dadc;fill-opacity:1" />
      <circle
         cx="128"
         cy="221.465"
         fill="#fcc24c"
         transform="matrix(0.924,-0.383,0.383,0.924,-75.008,65.842)"
         id="ellipse16421"
         r="30.535"
         style="fill:#a8dadc;fill-opacity:1" />
      <path
         d="m 44.235,78.984 53.23,80.677 v 31.269 h 61.07 v -31.269 l 53.23,-80.677 z"
         fill="#ff4397"
         id="path16423"
         style="fill:#e63946;fill-opacity:1" />
      <path
         d="m 167.001,43.179 h 12.468 v 11.986 c 0,3.443 -2.791,6.234 -6.234,6.234 -3.443,0 -6.234,-2.791 -6.234,-6.234 z"
         fill="#ff9f70"
         id="path16433"
         style="fill:#f1faee;fill-opacity:1" />
      <path
         d="m 173.235,63.399 c -4.54,0 -8.234,-3.694 -8.234,-8.234 V 43.179 c 0,-1.104 0.896,-2 2,-2 h 12.468 c 1.104,0 2,0.896 2,2 v 11.986 c 0,4.541 -3.694,8.234 -8.234,8.234 z m -4.234,-18.22 v 9.986 c 0,2.334 1.899,4.234 4.234,4.234 2.334,0 4.233,-1.899 4.233,-4.234 v -9.986 z"
         fill="#690589"
         id="path16435"
         style="fill:#1d3557;fill-opacity:1" />
      <path
         d="m 197.871,80.984 h -49.349 c -0.531,0 -1.04,-0.211 -1.415,-0.587 -0.375,-0.375 -0.586,-0.885 -0.585,-1.416 l 0.021,-16.224 c 0.008,-5.452 4.445,-9.883 9.895,-9.883 h 0.014 l 8.548,0.012 0.001,-9.707 c 0,-1.104 0.896,-2 2,-2 h 12.468 c 1.104,0 2,0.896 2,2 v 9.728 l 8.54,0.012 c 2.643,0.003 5.127,1.036 6.993,2.907 1.867,1.871 2.894,4.357 2.89,7.001 l -0.021,16.159 c -0.001,1.104 -0.896,1.998 -2,1.998 z m -47.346,-4 h 45.349 l 0.018,-14.162 c 0.002,-1.575 -0.609,-3.056 -1.722,-4.171 -1.112,-1.115 -2.592,-1.73 -4.167,-1.732 l -10.537,-0.015 c -0.55,0 -1.076,-0.228 -1.453,-0.629 -0.377,-0.401 -0.573,-0.939 -0.54,-1.489 l -0.004,-0.231 v -9.377 h -8.468 l -0.002,9.518 c 0.032,0.55 -0.164,1.127 -0.543,1.528 -0.378,0.4 -0.905,0.664 -1.455,0.664 -0.001,0 -0.002,0 -0.003,0 l -10.553,-0.014 c -0.003,0 -0.006,0 -0.008,0 -3.247,0 -5.891,2.64 -5.895,5.888 z"
         fill="#690589"
         id="path16437"
         style="fill:#1d3557;fill-opacity:1" />
      <path
         d="m 173.219,51.223 c -6.946,0 -12.577,-5.704 -12.577,-12.741 v -8.82 c 0,-7.036 5.631,-12.74 12.577,-12.74 6.946,0 12.577,5.704 12.577,12.74 v 8.82 c 0.001,7.037 -5.63,12.741 -12.577,12.741 z"
         fill="#ff9f70"
         id="path16439"
         style="fill:#f1faee;fill-opacity:1" />
      <path
         d="m 173.22,53.223 c -8.038,0 -14.577,-6.612 -14.577,-14.74 v -8.82 c 0,-8.128 6.539,-14.741 14.577,-14.741 8.038,0 14.577,6.613 14.577,14.741 v 8.82 c 0,8.127 -6.539,14.74 -14.577,14.74 z m 0,-34.302 c -5.832,0 -10.577,4.818 -10.577,10.741 v 8.82 c 0,5.922 4.745,10.74 10.577,10.74 5.832,0 10.577,-4.818 10.577,-10.74 v -8.82 c 0,-5.922 -4.745,-10.741 -10.577,-10.741 z"
         fill="#690589"
         id="path16441"
         style="fill:#1d3557;fill-opacity:1" />
      <path
         d="m 76.587,43.179 h 12.468 v 11.986 c 0,3.443 -2.791,6.234 -6.234,6.234 -3.443,0 -6.234,-2.791 -6.234,-6.234 z"
         fill="#ff9f70"
         id="path16443"
         style="fill:#f1faee;fill-opacity:1" />
      <path
         d="m 82.821,63.399 c -4.54,0 -8.234,-3.694 -8.234,-8.234 V 43.179 c 0,-1.104 0.896,-2 2,-2 h 12.469 c 1.104,0 2,0.896 2,2 v 11.986 c 0,4.541 -3.695,8.234 -8.235,8.234 z m -4.234,-18.22 v 9.986 c 0,2.334 1.899,4.234 4.234,4.234 2.335,0 4.234,-1.899 4.234,-4.234 v -9.986 z"
         fill="#690589"
         id="path16445"
         style="fill:#1d3557;fill-opacity:1" />
      <path
         d="M 107.457,80.984 H 58.108 c -0.531,0 -1.04,-0.211 -1.415,-0.587 -0.375,-0.375 -0.586,-0.885 -0.585,-1.416 l 0.021,-16.224 c 0.004,-2.644 1.036,-5.127 2.908,-6.994 1.868,-1.863 4.35,-2.889 6.987,-2.889 h 0.014 l 8.548,0.012 0.001,-9.707 c 0,-1.104 0.896,-2 2,-2 h 12.469 c 1.104,0 2,0.896 2,2 v 9.728 l 8.539,0.012 c 2.644,0.003 5.127,1.036 6.993,2.907 1.867,1.871 2.894,4.357 2.89,7.001 l -0.021,16.159 c -10e-4,1.104 -0.896,1.998 -2,1.998 z m -47.346,-4 h 45.349 l 0.018,-14.162 c 0.002,-1.575 -0.609,-3.056 -1.721,-4.171 -1.112,-1.115 -2.593,-1.73 -4.168,-1.732 L 89.053,56.904 c -0.55,0 -1.076,-0.228 -1.453,-0.629 -0.377,-0.401 -0.573,-0.939 -0.54,-1.489 l -0.004,-0.248 v -9.36 h -8.469 l -0.002,9.512 c 0.028,0.548 -0.171,1.131 -0.549,1.528 -0.378,0.397 -0.902,0.669 -1.449,0.669 -0.001,0 -0.002,0 -0.003,0 L 66.032,56.873 c -0.003,0 -0.006,0 -0.008,0 -3.247,0 -5.892,2.64 -5.896,5.888 z"
         fill="#690589"
         id="path16447"
         style="fill:#1d3557;fill-opacity:1" />
      <path
         d="m 82.806,51.223 c -6.946,0 -12.577,-5.704 -12.577,-12.741 v -8.82 c 0,-7.036 5.631,-12.74 12.577,-12.74 6.946,0 12.577,5.704 12.577,12.74 v 8.82 c 0,7.037 -5.631,12.741 -12.577,12.741 z"
         fill="#ff9f70"
         id="path16449"
         style="fill:#f1faee;fill-opacity:1" />
      <g
         fill="#690589"
         id="g16459">
        <path
           d="m 82.806,53.223 c -8.038,0 -14.577,-6.612 -14.577,-14.74 v -8.82 c 0,-8.128 6.539,-14.741 14.577,-14.741 8.038,0 14.577,6.613 14.577,14.741 v 8.82 c 0,8.127 -6.539,14.74 -14.577,14.74 z m 0,-34.302 c -5.832,0 -10.577,4.818 -10.577,10.741 v 8.82 c 0,5.922 4.745,10.74 10.577,10.74 5.832,0 10.577,-4.818 10.577,-10.74 v -8.82 c 0,-5.922 -4.745,-10.741 -10.577,-10.741 z"
           id="path16451"
           style="fill:#1d3557;fill-opacity:1" />
        <path
           d="m 158.535,192.93 h -61.07 c -1.104,0 -2,-0.896 -2,-2 v -30.668 l -52.9,-80.177 c -0.405,-0.614 -0.441,-1.401 -0.092,-2.049 0.349,-0.648 1.024,-1.052 1.761,-1.052 h 167.531 c 0.736,0 1.412,0.404 1.761,1.052 0.35,0.648 0.313,1.435 -0.092,2.049 l -52.899,80.176 v 30.668 c 0,1.105 -0.895,2.001 -2,2.001 z m -59.07,-4 h 57.07 v -29.268 c 0,-0.392 0.115,-0.774 0.331,-1.102 L 208.05,80.984 H 47.95 l 51.184,77.576 c 0.216,0.327 0.331,0.71 0.331,1.102 z"
           id="path16453"
           style="fill:#1d3557;fill-opacity:1" />
        <path
           d="m 72.545,107.765 c -0.649,0 -1.287,-0.316 -1.671,-0.898 l -7.919,-12 c -0.608,-0.922 -0.354,-2.163 0.567,-2.771 0.923,-0.608 2.163,-0.354 2.771,0.568 l 7.919,12 c 0.608,0.922 0.354,2.163 -0.567,2.771 -0.339,0.223 -0.722,0.33 -1.1,0.33 z"
           id="path16455"
           style="fill:#1d3557;fill-opacity:1" />
        <path
           d="m 128,254 c -17.94,0 -32.535,-14.595 -32.535,-32.535 0,-17.94 14.595,-32.535 32.535,-32.535 17.94,0 32.535,14.595 32.535,32.535 C 160.535,239.405 145.94,254 128,254 Z m 0,-61.07 c -15.734,0 -28.535,12.801 -28.535,28.535 0,15.734 12.801,28.535 28.535,28.535 15.734,0 28.535,-12.801 28.535,-28.535 0,-15.734 -12.801,-28.535 -28.535,-28.535 z"
           id="path16457"
           style="fill:#1d3557;fill-opacity:1" />
      </g>
      <path
         d="m 148.296,49.907 -4.007,-0.006 -8.723,-0.011 c 0.008,-0.14 0,-0.279 0,-0.421 V 35.723 h -15.063 v 13.726 c 0,0.142 -0.008,0.281 0,0.421 l -8.742,-0.011 -4.007,-0.006 c -5.268,-0.007 -9.545,4.259 -9.551,9.527 l -0.025,19.605 h 59.62 l 0.025,-19.526 c 0.006,-5.27 -4.259,-9.546 -9.527,-9.552 z"
         fill="#7bac51"
         id="path16461"
         style="fill:#457b9d;fill-opacity:1" />
      <path
         d="m 120.503,35.723 h 15.063 v 14.481 c 0,4.16 -3.372,7.532 -7.531,7.532 -4.16,0 -7.531,-3.372 -7.531,-7.532 V 35.723 Z"
         fill="#ff9f70"
         id="path16463"
         style="fill:#f1faee;fill-opacity:1" />
      <path
         d="m 128.034,59.735 c -5.256,0 -9.531,-4.276 -9.531,-9.531 V 35.723 c 0,-1.104 0.896,-2 2,-2 h 15.062 c 1.104,0 2,0.896 2,2 v 14.481 c 0,5.255 -4.275,9.531 -9.531,9.531 z m -5.531,-22.012 v 12.481 c 0,3.05 2.481,5.531 5.531,5.531 3.05,0 5.531,-2.481 5.531,-5.531 V 37.723 Z"
         fill="#690589"
         id="path16465"
         style="fill:#1d3557;fill-opacity:1" />
      <path
         d="m 157.798,80.984 h -59.62 c -0.531,0 -1.04,-0.211 -1.415,-0.587 -0.375,-0.375 -0.586,-0.885 -0.585,-1.416 l 0.024,-19.604 c 0.004,-3.083 1.208,-5.979 3.391,-8.155 2.179,-2.173 5.072,-3.369 8.148,-3.369 h 0.016 l 10.745,0.015 0.001,-12.144 c 0,-1.104 0.896,-2 2,-2 h 15.062 c 1.104,0 2,0.896 2,2 v 12.168 l 10.733,0.015 c 3.082,0.004 5.978,1.208 8.154,3.39 2.177,2.182 3.373,5.082 3.369,8.164 l -0.024,19.526 c 0,1.103 -0.896,1.997 -1.999,1.997 z m -57.617,-4 h 55.62 l 0.021,-17.528 c 0.003,-2.014 -0.779,-3.908 -2.201,-5.334 -1.422,-1.426 -3.314,-2.212 -5.327,-2.215 -0.001,0 -0.001,0 -0.001,0 l -12.73,-0.018 c -0.549,0 -1.074,-0.228 -1.451,-0.626 -0.377,-0.399 -0.573,-0.937 -0.543,-1.485 l -0.003,-0.31 V 37.723 h -11.062 l -0.002,11.885 c -10e-4,0.05 -0.004,0.1 -10e-4,0.15 0.03,0.549 -0.167,1.087 -0.545,1.486 -0.378,0.399 -0.903,0.625 -1.452,0.625 -0.001,0 -0.002,0 -0.003,0 l -12.749,-0.017 c -0.004,0 -0.007,0 -0.011,0 -2.009,0 -3.899,0.781 -5.323,2.201 -1.426,1.422 -2.212,3.314 -2.215,5.328 z"
         fill="#690589"
         id="path16467"
         style="fill:#1d3557;fill-opacity:1" />
      <path
         d="m 128.015,45.441 c -8.392,0 -15.195,-6.891 -15.195,-15.392 V 19.392 C 112.82,10.891 119.623,4 128.015,4 c 8.392,0 15.195,6.891 15.195,15.392 v 10.656 c 0,8.502 -6.803,15.393 -15.195,15.393 z"
         fill="#ff9f70"
         id="path16469"
         style="fill:#f1faee;fill-opacity:1" />
      <path
         d="m 128.016,47.441 c -9.481,0 -17.195,-7.802 -17.195,-17.393 V 19.392 C 110.82,9.802 118.534,2 128.016,2 c 9.482,0 17.194,7.802 17.194,17.392 v 10.656 c 0,9.591 -7.713,17.393 -17.194,17.393 z m 0,-41.441 c -7.276,0 -13.195,6.008 -13.195,13.392 v 10.656 c 0,7.385 5.919,13.393 13.195,13.393 7.275,0 13.194,-6.008 13.194,-13.393 V 19.392 C 141.21,12.008 135.291,6 128.016,6 Z"
         fill="#690589"
         id="path16471"
         style="fill:#1d3557;fill-opacity:1" />
      <path
         d="m 128.391,205.148 c 0.939,0 1.683,0.744 1.683,1.683 v 0.861 c 2.31,0.274 4.267,1.018 6.068,2.153 0.626,0.352 1.174,0.939 1.174,1.879 0,1.213 -0.979,2.153 -2.192,2.153 -0.392,0 -0.783,-0.117 -1.174,-0.352 -1.371,-0.822 -2.701,-1.409 -4.032,-1.722 v 7.515 c 5.95,1.488 8.494,3.876 8.494,8.064 0,4.305 -3.366,7.163 -8.337,7.633 v 2.348 c 0,0.939 -0.744,1.683 -1.683,1.683 -0.939,0 -1.722,-0.744 -1.722,-1.683 v -2.427 c -2.936,-0.313 -5.637,-1.37 -8.024,-3.053 -0.665,-0.43 -1.057,-1.057 -1.057,-1.879 0,-1.213 0.939,-2.153 2.153,-2.153 0.469,0 0.938,0.157 1.291,0.431 1.84,1.331 3.64,2.231 5.793,2.622 v -7.711 c -5.714,-1.488 -8.376,-3.64 -8.376,-8.064 0,-4.188 3.327,-7.085 8.22,-7.476 v -0.822 c -0.001,-0.94 0.782,-1.683 1.721,-1.683 z m -1.565,13.347 v -6.928 c -2.505,0.235 -3.758,1.566 -3.758,3.288 0,1.644 0.743,2.662 3.758,3.64 z m 3.092,5.441 v 7.124 c 2.505,-0.274 3.875,-1.527 3.875,-3.405 0,-1.723 -0.861,-2.779 -3.875,-3.719 z"
         fill="#690589"
         id="path16473"
         style="fill:#1d3557;fill-opacity:1" />
      <path
         d="m 119.203,145.949 8.797,11.885 8.797,-11.885 8.797,-11.885 H 134.78 V 98.166 h -13.56 v 35.898 h -10.814 z"
         fill="#fcc24c"
         id="path16475"
         style="fill:#f1faee;fill-opacity:1" />
      <path
         d="m 128,159.833 c -0.634,0 -1.23,-0.301 -1.607,-0.81 l -17.595,-23.77 c -0.449,-0.607 -0.519,-1.416 -0.179,-2.09 0.34,-0.675 1.031,-1.1 1.786,-1.1 h 8.814 V 98.167 c 0,-1.104 0.896,-2 2,-2 h 13.561 c 1.104,0 2,0.896 2,2 v 33.897 h 8.814 c 0.755,0 1.446,0.425 1.786,1.1 0.34,0.674 0.271,1.483 -0.179,2.09 l -17.595,23.77 c -0.376,0.509 -0.972,0.809 -1.606,0.809 z m -13.626,-23.769 6.437,8.695 7.189,9.713 13.626,-18.408 h -6.846 c -1.104,0 -2,-0.896 -2,-2 v -33.897 h -9.561 v 33.897 c 0,1.104 -0.896,2 -2,2 z"
         fill="#690589"
         id="path16477"
         style="fill:#1d3557;fill-opacity:1" />
    </g>
  </g>
</svg>
