<?xml version="1.0" encoding="UTF-8" standalone="no"?>
<svg
   xmlns:dc="http://purl.org/dc/elements/1.1/"
   xmlns:cc="http://creativecommons.org/ns#"
   xmlns:rdf="http://www.w3.org/1999/02/22-rdf-syntax-ns#"
   xmlns:svg="http://www.w3.org/2000/svg"
   xmlns="http://www.w3.org/2000/svg"
   xmlns:sodipodi="http://sodipodi.sourceforge.net/DTD/sodipodi-0.dtd"
   xmlns:inkscape="http://www.inkscape.org/namespaces/inkscape"
   width="114.42435mm"
   height="133.35001mm"
   viewBox="0 0 114.42435 133.35001"
   version="1.1"
   id="svg8"
   inkscape:version="1.0.1 (3bc2e813f5, 2020-09-07)"
   sodipodi:docname="Engagement-icon.svg">
  <defs
     id="defs2" />
  <sodipodi:namedview
     id="base"
     pagecolor="#ffffff"
     bordercolor="#666666"
     borderopacity="1.0"
     inkscape:pageopacity="0.0"
     inkscape:pageshadow="2"
     inkscape:zoom="1.4"
     inkscape:cx="231.86009"
     inkscape:cy="286.48198"
     inkscape:document-units="mm"
     inkscape:current-layer="g16303"
     inkscape:document-rotation="0"
     showgrid="false"
     inkscape:window-width="1851"
     inkscape:window-height="1057"
     inkscape:window-x="61"
     inkscape:window-y="-8"
     inkscape:window-maximized="1" />
  <metadata
     id="metadata5">
    <rdf:RDF>
      <cc:Work
         rdf:about="">
        <dc:format>image/svg+xml</dc:format>
        <dc:type
           rdf:resource="http://purl.org/dc/dcmitype/StillImage" />
        <dc:title />
      </cc:Work>
    </rdf:RDF>
  </metadata>
  <g
     inkscape:label="Layer 1"
     inkscape:groupmode="layer"
     id="layer1"
     transform="translate(-50.889013,-72.420237)">
    <g
       id="g16303"
       transform="matrix(0.52916667,0,0,0.52916667,40.368121,71.361904)">
      <path
         d="M 159.98,121.087 V 46.705 H 46.543 v 74.383 h -3.164 c -10.84,0 -19.627,8.787 -19.627,19.627 0,10.84 8.787,19.627 19.627,19.627 h 3.164 113.437 3.032 c 10.84,0 19.627,-8.787 19.627,-19.627 0,-10.84 -8.787,-19.627 -19.627,-19.627 h -3.032 z"
         fill="#fcc24c"
         id="path16203"
         style="fill:#457b9d;fill-opacity:1" />
      <path
         d="M 163.012,162.342 H 43.379 c -11.925,0 -21.627,-9.702 -21.627,-21.627 0,-11.926 9.702,-21.628 21.627,-21.628 h 1.164 V 46.705 c 0,-1.104 0.896,-2 2,-2 H 159.98 c 1.104,0 2,0.896 2,2 v 72.382 h 1.033 c 11.925,0 21.627,9.702 21.627,21.628 -10e-4,11.925 -9.702,21.627 -21.628,21.627 z M 43.379,123.087 c -9.72,0 -17.627,7.908 -17.627,17.628 0,9.72 7.907,17.627 17.627,17.627 h 119.633 c 9.72,0 17.627,-7.907 17.627,-17.627 0,-9.72 -7.907,-17.628 -17.627,-17.628 h -3.033 c -1.104,0 -2,-0.896 -2,-2 V 48.705 H 48.543 v 72.382 c 0,1.104 -0.896,2 -2,2 z"
         fill="#690589"
         id="path16209"
         style="fill:#1d3557;fill-opacity:1" />
      <path
         d="m 156.132,160.342 h -14.508 -16.05 c 0.024,-0.417 0,-0.83 0,-1.253 V 118.258 H 80.817 v 40.831 c 0,0.423 -0.024,0.836 0,1.253 H 64.767 50.259 c -15.672,0 -28.377,12.705 -28.377,28.377 V 252 h 162.627 v -63.281 c 0,-15.672 -12.705,-28.377 -28.377,-28.377 z"
         fill="#7bac51"
         id="path16211"
         style="fill:#e63946;fill-opacity:1" />
      <path
         d="M 184.509,254 H 21.882 c -1.104,0 -2,-0.896 -2,-2 v -63.281 c 0,-16.75 13.627,-30.377 30.377,-30.377 h 28.558 v -40.084 c 0,-1.104 0.896,-2 2,-2 h 44.757 c 1.104,0 2,0.896 2,2 v 40.084 h 28.558 c 16.75,0 30.377,13.627 30.377,30.377 V 252 c 0,1.104 -0.896,2 -2,2 z M 23.882,250 h 158.626 v -61.281 c 0,-14.544 -11.833,-26.377 -26.377,-26.377 h -30.558 c -0.551,0 -1.077,-0.228 -1.455,-0.628 -0.378,-0.4 -0.574,-0.939 -0.542,-1.489 0.013,-0.226 0.007,-0.449 0.002,-0.675 l -0.006,-0.461 V 120.258 H 82.817 l -0.006,39.291 c -0.004,0.227 -0.01,0.452 0.002,0.679 0.032,0.549 -0.165,1.087 -0.542,1.487 -0.377,0.4 -0.904,0.627 -1.454,0.627 H 50.259 c -14.544,0 -26.377,11.833 -26.377,26.377 z"
         fill="#690589"
         id="path16217"
         style="fill:#1d3557;fill-opacity:1" />
      <path
         d="m 30.846,211.652 c -1.104,0 -2,-0.896 -2,-2 v -12 c 0,-1.104 0.896,-2 2,-2 1.104,0 2,0.896 2,2 v 12 c 0,1.105 -0.896,2 -2,2 z"
         fill="#690589"
         id="path16219"
         style="fill:#1d3557;fill-opacity:1" />
      <path
         d="m 103.196,187.004 c -12.36,0 -22.379,-10.019 -22.379,-22.379 v -46.367 h 44.757 v 46.367 c 0,12.359 -10.019,22.379 -22.378,22.379 z"
         fill="#ff9f70"
         id="path16221"
         style="fill:#f1faee;fill-opacity:1" />
      <path
         d="m 103.196,189.004 c -13.442,0 -24.379,-10.937 -24.379,-24.379 v -46.367 c 0,-1.104 0.896,-2 2,-2 h 44.757 c 1.104,0 2,0.896 2,2 v 46.367 c 0,13.442 -10.936,24.379 -24.378,24.379 z M 82.817,120.258 v 44.367 c 0,11.237 9.142,20.379 20.378,20.379 11.237,0 20.378,-9.142 20.378,-20.379 v -44.367 z"
         fill="#690589"
         id="path16223"
         style="fill:#1d3557;fill-opacity:1" />
      <path
         d="m 103.12,147.949 c -25.088,0 -45.426,-20.602 -45.426,-46.016 V 70.075 c 0,-25.414 20.338,-46.016 45.426,-46.016 25.088,0 45.426,20.602 45.426,46.016 v 31.857 c 0,25.415 -20.338,46.017 -45.426,46.017 z"
         fill="#ff9f70"
         id="path16225"
         style="fill:#f1faee;fill-opacity:1" />
      <path
         d="m 103.12,149.949 c -26.151,0 -47.426,-21.54 -47.426,-48.017 V 70.075 c 0,-26.477 21.275,-48.017 47.426,-48.017 26.151,0 47.427,21.54 47.427,48.017 v 31.857 c -0.001,26.477 -21.276,48.017 -47.427,48.017 z m 0,-123.89 c -23.945,0 -43.426,19.746 -43.426,44.017 v 31.857 c 0,24.271 19.481,44.017 43.426,44.017 23.946,0 43.427,-19.746 43.427,-44.017 V 70.075 C 146.546,45.805 127.065,26.059 103.12,26.059 Z"
         fill="#690589"
         id="path16231"
         style="fill:#1d3557;fill-opacity:1" />
      <path
         d="M 229.118,4 H 174.98 c -2.762,0 -5,2.239 -5,5 v 33.615 c 0,2.761 2.238,5 5,5 h 15.337 v 11.732 l 11.732,-11.732 h 27.069 c 2.761,0 5,-2.239 5,-5 V 9 c 0,-2.761 -2.239,-5 -5,-5 z"
         fill="#ff4397"
         id="path16233"
         style="fill:#e63946;fill-opacity:1" />
      <path
         d="m 229.118,4 h -8 c 2.761,0 5,2.239 5,5 v 33.615 c 0,2.761 -2.239,5 -5,5 h 8 c 2.761,0 5,-2.239 5,-5 V 9 c 0,-2.761 -2.239,-5 -5,-5 z"
         fill="#e12579"
         id="path16235"
         style="fill:#e63946;fill-opacity:1" />
      <path
         d="m 174.98,47.615 h 8 c -2.761,0 -5,-2.239 -5,-5 V 9 c 0,-2.761 2.239,-5 5,-5 h -8 c -2.761,0 -5,2.239 -5,5 v 33.615 c 0,2.761 2.238,5 5,5 z"
         fill="#ff61b5"
         id="path16237"
         style="fill:#e63946;fill-opacity:1" />
      <g
         fill="#690589"
         id="g16247">
        <path
           d="m 190.317,61.347 c -0.258,0 -0.518,-0.05 -0.765,-0.152 -0.748,-0.31 -1.235,-1.039 -1.235,-1.848 v -9.731 h -13.338 c -3.86,0 -7,-3.141 -7,-7 V 9 c 0,-3.859 3.14,-7 7,-7 h 54.138 c 3.86,0 7,3.141 7,7 v 33.615 c 0,3.859 -3.14,7 -7,7 h -26.24 l -11.146,11.146 c -0.382,0.383 -0.894,0.586 -1.414,0.586 z M 174.979,6 c -1.654,0 -3,1.346 -3,3 v 33.615 c 0,1.654 1.346,3 3,3 h 15.338 c 1.104,0 2,0.896 2,2 v 6.903 l 8.317,-8.317 c 0.375,-0.375 0.884,-0.586 1.414,-0.586 h 27.069 c 1.654,0 3,-1.346 3,-3 V 9 c 0,-1.654 -1.346,-3 -3,-3 z"
           id="path16239"
           style="fill:#1d3557;fill-opacity:1" />
        <path
           d="m 184.592,28.292 c 1.366,0 2.499,1.132 2.499,2.498 0,1.366 -1.133,2.465 -2.499,2.465 -1.366,0 -2.465,-1.1 -2.465,-2.465 0,-1.365 1.099,-2.498 2.465,-2.498 z"
           id="path16241"
           style="fill:#1d3557;fill-opacity:1" />
        <path
           d="m 202.246,28.292 c 1.366,0 2.499,1.132 2.499,2.498 0,1.366 -1.133,2.465 -2.499,2.465 -1.366,0 -2.465,-1.1 -2.465,-2.465 0,-1.365 1.099,-2.498 2.465,-2.498 z"
           id="path16243"
           style="fill:#1d3557;fill-opacity:1" />
        <path
           d="m 219.9,28.292 c 1.366,0 2.499,1.132 2.499,2.498 0,1.366 -1.133,2.465 -2.499,2.465 -1.366,0 -2.465,-1.1 -2.465,-2.465 0,-1.365 1.1,-2.498 2.465,-2.498 z"
           id="path16245"
           style="fill:#1d3557;fill-opacity:1" />
      </g>
      <path
         d="m 124.437,4 c -4.2,0 -7.754,2.748 -8.972,6.543 C 114.247,6.748 110.693,4 106.493,4 H 82.086 C 62.456,4 46.543,19.913 46.543,39.543 v 26.655 h 39.316 c 14.072,0 25.881,-9.671 29.154,-22.728 v 5.01 c 0,20.195 16.371,36.566 36.566,36.566 h 8.401 V 39.543 C 159.98,19.913 144.067,4 124.437,4 Z"
         fill="#fcc24c"
         id="path16249"
         style="fill:#457b9d;fill-opacity:1" />
      <path
         d="m 92.086,4 h -10 C 62.456,4 46.543,19.913 46.543,39.543 v 26.655 h 10 V 39.543 C 56.543,19.913 72.456,4 92.086,4 Z"
         fill="#fce06a"
         id="path16251"
         style="fill:#457b9d;fill-opacity:1" />
      <path
         d="m 124.437,4 c -1.188,0 -2.32,0.226 -3.367,0.628 16.458,3.108 28.909,17.554 28.909,34.915 v 45.463 c 0.531,0.023 1.063,0.04 1.599,0.04 h 8.401 V 39.543 C 159.98,19.913 144.067,4 124.437,4 Z"
         fill="#dea42e"
         id="path16253"
         style="fill:#457b9d;fill-opacity:1" />
      <path
         d="m 159.979,87.046 h -8.401 c -19.799,0 -36.161,-14.997 -38.324,-34.228 -5.692,9.369 -15.958,15.38 -27.396,15.38 H 46.543 c -1.104,0 -2,-0.896 -2,-2 V 39.543 C 44.543,18.842 61.385,2 82.086,2 h 24.407 c 3.585,0 6.854,1.65 8.972,4.343 C 117.583,3.65 120.852,2 124.437,2 c 20.701,0 37.542,16.842 37.542,37.543 v 45.503 c 0,1.104 -0.895,2 -2,2 z M 115.011,41.471 c 0.082,0 0.164,0.005 0.247,0.015 1.002,0.124 1.755,0.976 1.755,1.985 v 5.01 c 0,19.06 15.506,34.565 34.566,34.565 h 6.401 V 39.543 C 157.979,21.047 142.933,6 124.437,6 c -3.238,0 -6.079,2.071 -7.067,5.154 -0.265,0.828 -1.035,1.39 -1.904,1.39 -0.869,0 -1.639,-0.562 -1.904,-1.389 C 112.572,8.071 109.731,6 106.493,6 H 82.086 C 63.59,6 48.543,21.047 48.543,39.543 v 24.655 h 37.316 c 12.892,0 24.083,-8.724 27.214,-21.214 0.225,-0.898 1.032,-1.513 1.938,-1.513 z"
         fill="#690589"
         id="path16255"
         style="fill:#1d3557;fill-opacity:1" />
      <path
         d="m 220.727,186.658 -0.391,-8.18 -5.137,5.137 c -9.122,-9.117 -21.247,-14.137 -34.145,-14.137 -12.902,0 -25.032,5.024 -34.155,14.148 l 5.53,5.53 c 7.646,-7.646 17.812,-11.857 28.625,-11.857 10.808,0 20.97,4.207 28.615,11.847 l -4.911,4.911 8.18,0.39 8.18,0.391 z"
         fill="#7bac51"
         id="path16257"
         style="fill:#a8dadc;fill-opacity:1" />
      <path
         d="m 147.29,226.426 0.39,8.18 5.137,-5.137 c 9.122,9.117 21.247,14.137 34.145,14.137 12.902,0 25.032,-5.024 34.155,-14.148 l -5.53,-5.53 c -7.646,7.646 -17.812,11.857 -28.625,11.857 -10.808,0 -20.97,-4.207 -28.615,-11.847 l 4.911,-4.911 -8.18,-0.39 -8.179,-0.391 z"
         fill="#ff4397"
         id="path16259"
         style="fill:#f1faee;fill-opacity:1" />
      <path
         d="m 221.118,196.838 c -0.032,0 -0.063,-0.001 -0.095,-0.002 l -16.359,-0.781 c -0.791,-0.038 -1.485,-0.539 -1.771,-1.277 -0.285,-0.738 -0.108,-1.575 0.452,-2.135 l 3.46,-3.46 c -7.078,-6.388 -16.146,-9.883 -25.75,-9.883 -10.28,0 -19.944,4.003 -27.211,11.271 -0.78,0.781 -2.047,0.781 -2.828,0 l -5.53,-5.529 c -0.781,-0.781 -0.781,-2.047 0,-2.828 9.5,-9.502 22.132,-14.734 35.569,-14.734 12.761,0 24.799,4.722 34.117,13.337 l 3.751,-3.751 c 0.56,-0.56 1.396,-0.738 2.135,-0.451 0.738,0.285 1.239,0.979 1.276,1.77 l 0.391,8.18 0.39,8.18 c 0.027,0.563 -0.185,1.111 -0.583,1.51 -0.376,0.373 -0.885,0.583 -1.414,0.583 z m -11.748,-4.564 9.646,0.461 -0.46,-9.646 -1.941,1.941 c -0.78,0.781 -2.047,0.78 -2.828,0.001 -8.745,-8.74 -20.369,-13.553 -32.731,-13.553 -11.7,0 -22.736,4.31 -31.297,12.178 l 2.704,2.704 c 7.837,-7.147 17.914,-11.061 28.593,-11.061 11.342,0 22.006,4.415 30.028,12.432 0.375,0.375 0.586,0.884 0.586,1.415 0,0.53 -0.21,1.039 -0.586,1.414 z"
         fill="#690589"
         id="path16261"
         style="fill:#1d3557;fill-opacity:1" />
      <path
         d="m 186.962,245.606 c -12.761,0 -24.799,-4.722 -34.117,-13.337 l -3.751,3.751 c -0.56,0.56 -1.396,0.737 -2.135,0.451 -0.738,-0.285 -1.239,-0.979 -1.276,-1.77 l -0.781,-16.359 c -0.027,-0.563 0.185,-1.111 0.583,-1.51 0.398,-0.399 0.952,-0.597 1.509,-0.584 l 16.359,0.78 c 0.791,0.038 1.485,0.538 1.77,1.276 0.286,0.739 0.109,1.576 -0.451,2.136 l -3.46,3.461 c 7.078,6.388 16.146,9.883 25.75,9.883 10.279,0 19.943,-4.003 27.211,-11.271 0.375,-0.375 0.884,-0.586 1.414,-0.586 0.53,0 1.039,0.211 1.414,0.586 l 5.53,5.53 c 0.781,0.781 0.781,2.047 0,2.828 -9.5,9.503 -22.132,14.735 -35.569,14.735 z m -34.145,-18.137 c 0.512,0 1.023,0.195 1.414,0.585 8.745,8.74 20.369,13.553 32.731,13.553 11.699,0 22.736,-4.31 31.297,-12.178 l -2.705,-2.704 c -7.838,7.147 -17.915,11.061 -28.593,11.061 -11.342,0 -22.006,-4.415 -30.028,-12.432 -0.375,-0.375 -0.586,-0.884 -0.586,-1.415 0,-0.53 0.21,-1.039 0.586,-1.414 l 1.714,-1.715 -9.646,-0.46 0.286,5.981 0.175,3.664 1.941,-1.94 c 0.39,-0.391 0.903,-0.586 1.414,-0.586 z"
         fill="#690589"
         id="path16263"
         style="fill:#1d3557;fill-opacity:1" />
    </g>
  </g>
</svg>
