<?xml version="1.0" encoding="UTF-8"?>
<svg data-bbox="0.001 -0.001 135.465 135.466" xmlns="http://www.w3.org/2000/svg" viewBox="0 0 135.47 135.47" height="512.013" width="512.013" data-type="color">
    <g>
        <path fill="#e3e7f2" d="M54.186 90.31h2.258a9.031 9.031 0 0 1 9.03 9.03v4.516a9.031 9.031 0 0 1-9.03 9.031h-2.258z" data-color="1"/>
        <path fill="#ffffff" d="M20.32 110.63h9.03v18.062a4.516 4.516 0 1 1-9.03 0z" data-color="2"/>
        <path fill="#69c0cb" d="M6.773 92.567H20.32v18.062H6.773a4.516 4.516 0 0 1-4.515-4.516v-9.03a4.516 4.516 0 0 1 4.515-4.516z" data-color="3"/>
        <path fill="#ffffff" d="M56.443 79.02v45.156l-20.32-13.547V92.567z" data-color="2"/>
        <path fill="#69c0cb" d="M49.67 83.536v36.124l-13.547-9.031V92.567z" data-color="3"/>
        <path d="M18.062 88.05h18.062v27.093H18.062a2.258 2.258 0 0 1-2.258-2.257V90.308a2.257 2.257 0 0 1 2.258-2.258z" fill="#ffffff" data-color="2"/>
        <path d="M133.208 22.577c-.001 11.222-9.098 20.318-20.32 20.32a20.983 20.983 0 0 1-3.386-.271c-9.778-1.66-16.933-10.131-16.933-20.05s7.155-18.388 16.933-20.048a20.983 20.983 0 0 1 3.386-.271c11.222 0 20.319 9.098 20.32 20.32z" fill="#ffffff" data-color="2"/>
        <path d="M126.435 22.577a19.972 19.972 0 0 1-2.348 9.46 20.264 20.264 0 0 1-14.518 10.566.082.082 0 0 1-.067.023 11.045 11.045 0 0 1-1.242-.271c-.361-.09-.723-.204-1.084-.294a20.318 20.318 0 0 1 2.326-39.533c9.777 1.66 16.932 10.13 16.933 20.049z" fill="#ffffff" data-color="2"/>
        <path fill="#d4e1f4" d="M124.175 33.504a11.843 11.843 0 0 1-2.438 7.27 19.245 19.245 0 0 1-8.85 2.122 17.99 17.99 0 0 1-3.32-.293 20.264 20.264 0 0 0 14.518-10.566 10.393 10.393 0 0 1 .09 1.467z" data-color="4"/>
        <path d="M124.085 32.036a20.264 20.264 0 0 1-14.517 10.566 26.49 26.49 0 0 1-1.31-.248c-.36-.09-.722-.203-1.083-.294a19.083 19.083 0 0 1-3.138-1.287 11.997 11.997 0 0 1 4.65-18.197h.023a6.45 6.45 0 0 0 8.354 0h.022a11.769 11.769 0 0 1 7 9.46z" fill="#ffffff" data-color="2"/>
        <path d="M119.662 18.061a6.655 6.655 0 0 1-2.574 5.306h-.023a6.677 6.677 0 0 1-8.353 0h-.023a6.656 6.656 0 0 1-2.574-5.306 6.773 6.773 0 0 1 13.547 0z" fill="#ffffff" data-color="2"/>
        <path d="M104.673 36.275c-.074-.081-.151-.16-.224-.242a20.6 20.6 0 0 1-.748-.905c-.109-.138-.218-.273-.323-.413a20.321 20.321 0 0 1-.609-.868 20.458 20.458 0 0 1-.353-.543 19.988 19.988 0 0 1-.496-.843 21 21 0 0 1-.75-1.476 20.2 20.2 0 0 1-.32-.75 20.14 20.14 0 0 1-.313-.806c-.1-.279-.188-.563-.277-.848-.08-.259-.162-.516-.232-.78-.083-.314-.15-.634-.22-.954-.052-.245-.11-.487-.154-.735-.065-.372-.11-.75-.154-1.13-.025-.204-.06-.406-.077-.613a20.478 20.478 0 0 1-.081-1.792c.001-9.881 7.106-18.331 16.84-20.029a20.37 20.37 0 0 0-3.294-.29 20.983 20.983 0 0 0-3.387.27C99.724 4.188 92.57 12.66 92.568 22.577c0 .604.03 1.201.081 1.792.019.207.053.409.078.614.044.378.088.757.154 1.129.043.248.102.49.155.735.068.32.135.64.219.955.07.263.152.52.232.78.088.284.176.568.277.847a20.713 20.713 0 0 0 .313.806c.103.252.208.503.32.75a20.287 20.287 0 0 0 .401.825c.113.22.229.437.349.651a19.988 19.988 0 0 0 .496.843c.114.184.233.363.353.543a20.661 20.661 0 0 0 .609.868c.104.14.214.275.323.413a20.446 20.446 0 0 0 .747.905c.073.083.15.16.225.242a20.305 20.305 0 0 0 11.601 6.35 20.983 20.983 0 0 0 3.387.271 20.485 20.485 0 0 0 2.264-.133c.119-.014.233-.038.351-.054.215-.027.42-.08.633-.113a20.303 20.303 0 0 1-11.463-6.321z" fill="#ffffff" data-color="2"/>
        <path d="M9.03 106.113v-9.03a4.516 4.516 0 0 1 4.516-4.516H6.773a4.516 4.516 0 0 0-4.515 4.515v9.031a4.516 4.516 0 0 0 4.515 4.516h6.773a4.516 4.516 0 0 1-4.515-4.516z" fill="#ffffff" data-color="2"/>
        <path d="M112.888 0a22.558 22.558 0 0 0-9.904 42.834c.065.036.133.068.201.097a22.29 22.29 0 0 0 19.409 0 2.17 2.17 0 0 0 .197-.096 22.558 22.558 0 0 0 12.095-25.358A22.558 22.558 0 0 0 112.888-.001zm-7.35 39.06a8.833 8.833 0 0 1-1.68-5.195 9.041 9.041 0 0 1 4.714-7.921 8.69 8.69 0 0 0 8.635-.001 9.045 9.045 0 0 1 4.712 7.922 8.833 8.833 0 0 1-1.68 5.194 17.895 17.895 0 0 1-14.7 0zm7.35-16.484a4.516 4.516 0 1 1 0-9.03 4.516 4.516 0 0 1 0 9.03zm13.49 11.97c.01-.228.057-.452.057-.681a13.513 13.513 0 0 0-5.862-11.121 8.943 8.943 0 0 0 1.347-4.684 9.031 9.031 0 0 0-18.062 0 8.941 8.941 0 0 0 1.347 4.684 13.512 13.512 0 0 0-5.863 11.12c0 .23.047.454.058.682-6.454-7.247-6.027-18.299.966-25.027s18.053-6.729 25.046 0c6.993 6.728 7.42 17.78.965 25.027z" fill="#069db1" data-color="5"/>
        <path d="M58.702 88.28v-9.259a2.258 2.258 0 0 0-3.51-1.878l-16.81 11.206v-.297a2.256 2.256 0 0 0-2.257-2.258H18.063a4.521 4.521 0 0 0-4.516 4.516H6.774a6.78 6.78 0 0 0-6.773 6.773v9.031a6.78 6.78 0 0 0 6.773 6.773h6.773a4.521 4.521 0 0 0 4.516 4.516v11.289a6.773 6.773 0 0 0 13.546 0v-11.289h4.516a2.256 2.256 0 0 0 2.258-2.258v-.297l16.81 11.207a2.258 2.258 0 0 0 3.51-1.879v-9.259a11.307 11.307 0 0 0 9.03-11.06V99.34a11.308 11.308 0 0 0-9.03-11.06zM6.773 108.372a2.259 2.259 0 0 1-2.257-2.258v-9.03a2.259 2.259 0 0 1 2.257-2.258h6.773v13.546H6.773zm20.32 20.32a2.258 2.258 0 0 1-4.515 0v-11.289h4.515zm6.773-15.805H18.062V90.31h15.804zm20.32 7.071l-15.804-10.537V93.776l15.804-10.537zm9.03-16.102a6.787 6.787 0 0 1-4.515 6.388v-17.29a6.788 6.788 0 0 1 4.516 6.387z" fill="#069db1" data-color="5"/>
        <path d="M76.763 99.34h-2.258a2.258 2.258 0 1 0 0 4.515h2.258a2.258 2.258 0 1 0 0-4.515z" fill="#069db1" data-color="5"/>
        <path d="M107.769 64.587a22.517 22.517 0 0 0-4.148-2.998 2.256 2.256 0 0 0-3.363 1.991 2.256 2.256 0 0 0 1.15 1.942 18.162 18.162 0 0 1 3.318 2.399 2.257 2.257 0 1 0 3.043-3.334z" fill="#069db1" data-color="5"/>
        <path d="M110.092 93.823a2.26 2.26 0 0 0 1.949-1.113 22.456 22.456 0 0 0 2.075-4.68 2.257 2.257 0 0 0-4.309-1.346 17.953 17.953 0 0 1-1.66 3.737 2.258 2.258 0 0 0 1.945 3.402z" fill="#069db1" data-color="5"/>
        <path d="M18.179 57.764a2.257 2.257 0 0 0 .996 3.034 22.475 22.475 0 0 0 4.803 1.774 2.258 2.258 0 0 0 2.724-1.659 2.258 2.258 0 0 0-1.653-2.728 17.902 17.902 0 0 1-3.836-1.418 2.26 2.26 0 0 0-3.034.997z" fill="#069db1" data-color="5"/>
        <path d="M112.656 80.486a2.513 2.513 0 0 0 .339-.024 2.262 2.262 0 0 0 1.896-2.571 22.613 22.613 0 0 0-1.336-4.946 2.258 2.258 0 0 0-3.87-.567 2.259 2.259 0 0 0-.328 2.234 17.886 17.886 0 0 1 1.067 3.954 2.26 2.26 0 0 0 2.232 1.92z" fill="#069db1" data-color="5"/>
        <path d="M102.549 96.332a17.974 17.974 0 0 1-3.643 1.863 2.257 2.257 0 0 0-.655 3.867 2.258 2.258 0 0 0 2.238.362 22.612 22.612 0 0 0 4.56-2.33 2.258 2.258 0 1 0-2.5-3.762z" fill="#069db1" data-color="5"/>
        <path d="M31.443 60.957a2.256 2.256 0 0 0 2.257 2.258h4.617a2.258 2.258 0 0 0 0-4.515H33.7a2.256 2.256 0 0 0-2.257 2.257z" fill="#069db1" data-color="5"/>
        <path d="M45.296 60.957a2.256 2.256 0 0 0 2.258 2.258h4.617a2.258 2.258 0 0 0 0-4.515h-4.617a2.256 2.256 0 0 0-2.258 2.257z" fill="#069db1" data-color="5"/>
        <path d="M44.256 18.061H39.64a2.258 2.258 0 0 0-2.257 2.258 2.258 2.258 0 0 0 2.257 2.257h4.617a2.258 2.258 0 0 0 0-4.515z" fill="#069db1" data-color="5"/>
        <path d="M58.107 18.061H53.49a2.258 2.258 0 0 0-2.258 2.258 2.258 2.258 0 0 0 2.258 2.257h4.617a2.258 2.258 0 0 0 0-4.515z" fill="#069db1" data-color="5"/>
        <path d="M74.22 20.32a2.256 2.256 0 0 0-2.258-2.259h-4.617a2.258 2.258 0 0 0-2.257 2.258 2.258 2.258 0 0 0 2.257 2.258h4.617a2.256 2.256 0 0 0 2.258-2.258z" fill="#069db1" data-color="5"/>
        <path d="M93.86 58.74a24.41 24.41 0 0 0-1.292-.04h-3.455a2.258 2.258 0 0 0 0 4.516h3.442a20.648 20.648 0 0 1 1.045.03c.044.003.088.005.132.005a2.257 2.257 0 0 0 .128-4.51z" fill="#069db1" data-color="5"/>
        <path d="M16.053 22.392a22.721 22.721 0 0 0-3.768 3.463 2.259 2.259 0 0 0 3.413 2.96 18.201 18.201 0 0 1 3.019-2.777 2.258 2.258 0 1 0-2.664-3.646z" fill="#069db1" data-color="5"/>
        <path d="M90.616 99.34h-4.617a2.258 2.258 0 1 0 0 4.515h4.617a2.258 2.258 0 0 0 0-4.515z" fill="#069db1" data-color="5"/>
        <path d="M79.877 58.7H75.26a2.258 2.258 0 0 0 0 4.516h4.617a2.258 2.258 0 0 0 0-4.516z" fill="#069db1" data-color="5"/>
        <path d="M30.403 18.061H29.35a22.587 22.587 0 0 0-3.94.344 2.258 2.258 0 0 0 .39 4.48c.133 0 .265-.011.395-.035a18.333 18.333 0 0 1 3.155-.273h1.052a2.258 2.258 0 0 0 2.258-2.258 2.258 2.258 0 0 0-2.258-2.258z" fill="#069db1" data-color="5"/>
        <path d="M9.884 46.9a2.257 2.257 0 0 0-1.133 2.985 22.513 22.513 0 0 0 2.615 4.4 2.256 2.256 0 0 0 3.162.431 2.256 2.256 0 0 0 .432-3.161 18.192 18.192 0 0 1-2.09-3.521A2.258 2.258 0 0 0 9.883 46.9z" fill="#069db1" data-color="5"/>
        <path d="M66.023 58.7h-4.617a2.258 2.258 0 0 0 0 4.516h4.617a2.258 2.258 0 0 0 0-4.516z" fill="#069db1" data-color="5"/>
        <path d="M10.283 33.24a2.266 2.266 0 0 0-2.758 1.607 22.663 22.663 0 0 0-.739 5.06 2.255 2.255 0 0 0 2.183 2.329.765.765 0 0 0 .075.002 2.256 2.256 0 0 0 2.254-2.185 18.357 18.357 0 0 1 .593-4.055 2.258 2.258 0 0 0-1.608-2.758z" fill="#069db1" data-color="5"/>
        <path d="M85.795 20.32a2.256 2.256 0 0 0-2.257-2.259H81.28a2.258 2.258 0 0 0-2.258 2.258 2.258 2.258 0 0 0 2.258 2.258h2.257a2.256 2.256 0 0 0 2.258-2.258z" fill="#069db1" data-color="5"/>
        <path d="M117.402 117.403a2.256 2.256 0 0 0 2.258-2.258v-2.258a2.258 2.258 0 0 0-4.516 0v2.258a2.256 2.256 0 0 0 2.258 2.258z" fill="#069db1" data-color="5"/>
        <path d="M117.402 121.916a2.256 2.256 0 0 0-2.258 2.258v2.258a2.258 2.258 0 0 0 4.516 0v-2.258a2.256 2.256 0 0 0-2.258-2.258z" fill="#069db1" data-color="5"/>
        <path d="M112.888 117.403h-2.257a2.258 2.258 0 1 0 0 4.515h2.257a2.258 2.258 0 1 0 0-4.515z" fill="#069db1" data-color="5"/>
        <path d="M124.175 117.403h-2.257a2.258 2.258 0 1 0 0 4.515h2.257a2.258 2.258 0 1 0 0-4.515z" fill="#069db1" data-color="5"/>
        <path d="M58.702 31.607a2.256 2.256 0 0 0-2.257 2.258v2.258a2.258 2.258 0 0 0 4.515 0v-2.258a2.256 2.256 0 0 0-2.258-2.258z" fill="#069db1" data-color="5"/>
        <path d="M58.702 42.897a2.256 2.256 0 0 0-2.257 2.258v2.257a2.258 2.258 0 0 0 4.515 0v-2.257a2.256 2.256 0 0 0-2.258-2.258z" fill="#069db1" data-color="5"/>
        <path d="M49.67 40.637a2.256 2.256 0 0 0 2.257 2.258h2.258a2.258 2.258 0 0 0 0-4.515h-2.258a2.256 2.256 0 0 0-2.257 2.257z" fill="#069db1" data-color="5"/>
        <path d="M63.216 42.897h2.258a2.258 2.258 0 0 0 0-4.515h-2.258a2.258 2.258 0 0 0 0 4.515z" fill="#069db1" data-color="5"/>
    </g>
</svg>
