<?xml version="1.0" encoding="UTF-8"?>
<svg data-bbox="-0.001 0 127.001 129.117" viewBox="0 0 127 129.117" height="488" width="480" xmlns="http://www.w3.org/2000/svg" data-type="color">
    <g>
        <path d="M2.116 114.3h71.967v4.233A8.467 8.467 0 0 1 65.616 127H10.583a8.467 8.467 0 0 1-8.467-8.467z" fill="#f8daa1" data-color="1"/>
        <path d="M16.933 84.666V67.733H8.466V114.3h59.267v-8.467H38.099a21.167 21.167 0 0 1-21.166-21.167z" fill="#ffffff" data-color="2"/>
        <path d="M124.883 74.083v25.4a4.233 4.233 0 0 1-4.233 4.233h-25.4a4.233 4.233 0 0 1-4.234-4.233v-25.4a4.233 4.233 0 0 1 4.233-4.233h25.4a4.233 4.233 0 0 1 4.234 4.233z" fill="#ffffff" data-color="2"/>
        <path d="M114.3 86.783a6.35 6.35 0 1 1-12.7 0 6.35 6.35 0 0 1 12.7 0z" fill="#ffffff" data-color="2"/>
        <path d="M112.183 84.666a2.117 2.117 0 1 1-4.233 0 2.117 2.117 0 0 1 4.233 0z" fill="#ffffff" data-color="2"/>
        <path d="M69.85 19.05a16.933 16.933 0 1 1-33.867 0 16.933 16.933 0 0 1 33.866 0z" fill="#ffffff" data-color="2"/>
        <path d="M48.683 25.4V12.7l12.7 6.35z" fill="#ffffff" data-color="2"/>
        <path d="M97.366 14.816V4.233H95.25a4.233 4.233 0 0 0-4.233 4.233v25.4A4.233 4.233 0 0 0 95.25 38.1h25.4a4.233 4.233 0 0 0 4.234-4.234V31.75H114.3a16.933 16.933 0 0 1-16.934-16.934z" fill="#ffffff" data-color="2"/>
        <path d="M8.466 38.1V23.283h-6.35V57.15h25.4V50.8h-6.35a12.7 12.7 0 0 1-12.7-12.7z" fill="#ffffff" data-color="2"/>
        <path d="M36.114 89.25l7.332-4.234 8.467 14.664a4.233 4.233 0 0 1-1.55 5.783 4.233 4.233 0 0 1-5.782-1.55z" fill="#ffffff" data-color="2"/>
        <path d="M80.962 78.02L44.788 91.567l-10.583-18.33 29.824-24.554z" fill="#ffffff" data-color="2"/>
        <path d="M25.048 78.53l9.165-5.291 10.584 18.33-9.166 5.292a6.35 6.35 0 0 1-8.674-2.322l-4.233-7.335a6.35 6.35 0 0 1 2.324-8.674z" fill="#f8daa8" data-color="3"/>
        <path d="M19.043 89.317l3.666-2.117 4.233 7.332-3.666 2.117a4.233 4.233 0 0 1-5.782-1.55 4.233 4.233 0 0 1 1.549-5.782z" fill="#ffffff" data-color="2"/>
        <path fill="#f5ba48" d="M114.3 10.583h-4.234a6.35 6.35 0 0 0-6.35 6.35v2.117H101.6a2.117 2.117 0 0 0 0 4.233h2.116v6.35a2.117 2.117 0 0 0 4.234 0v-6.35h2.116a2.117 2.117 0 0 0 0-4.233h-2.116v-2.117a2.117 2.117 0 0 1 2.116-2.117h4.234a2.117 2.117 0 0 0 0-4.233z" data-color="4"/>
        <path fill="#f5ba48" d="M120.65 2.116h-25.4a6.35 6.35 0 0 0-6.35 6.35v25.4a6.35 6.35 0 0 0 6.35 6.35h25.4a6.35 6.35 0 0 0 6.35-6.35v-25.4a6.35 6.35 0 0 0-6.35-6.35zm2.116 31.75a2.117 2.117 0 0 1-2.116 2.117h-25.4a2.117 2.117 0 0 1-2.117-2.117v-25.4a2.117 2.117 0 0 1 2.116-2.116h25.4a2.117 2.117 0 0 1 2.117 2.116z" data-color="4"/>
        <path fill="#f5ba48" d="M120.65 67.733h-25.4a6.35 6.35 0 0 0-6.35 6.35v25.4a6.35 6.35 0 0 0 6.35 6.35h25.4a6.35 6.35 0 0 0 6.35-6.35v-25.4a6.35 6.35 0 0 0-6.35-6.35zm2.116 31.75a2.117 2.117 0 0 1-2.116 2.117h-25.4a2.117 2.117 0 0 1-2.117-2.117v-25.4a2.117 2.117 0 0 1 2.116-2.117h25.4a2.117 2.117 0 0 1 2.117 2.117z" data-color="4"/>
        <path fill="#f5ba48" d="M107.95 78.316a8.467 8.467 0 1 0 8.466 8.467 8.467 8.467 0 0 0-8.466-8.467zm0 12.7a4.233 4.233 0 1 1 4.233-4.233 4.233 4.233 0 0 1-4.233 4.233z" data-color="4"/>
        <path fill="#f5ba48" d="M47.56 27.199a2.117 2.117 0 0 0 1.123.317 2.117 2.117 0 0 0 .952-.232l12.7-6.35a2.117 2.117 0 0 0 0-3.768l-12.7-6.35a2.117 2.117 0 0 0-3.069 1.884v12.7a2.117 2.117 0 0 0 .995 1.799zm3.24-11.07l5.841 2.92-5.842 2.922z" data-color="4"/>
        <path fill="#f5ba48" d="M52.916 38.1a19.05 19.05 0 1 0-19.05-19.05 19.05 19.05 0 0 0 19.05 19.05zm0-33.867A14.817 14.817 0 1 1 38.1 19.05 14.817 14.817 0 0 1 52.916 4.233z" data-color="4"/>
        <path fill="#f5ba48" d="M74.083 46.566a2.117 2.117 0 0 0 1.693-.846l6.35-8.467a2.117 2.117 0 0 0-3.387-2.54l-6.35 8.467a2.117 2.117 0 0 0 .424 2.963 2.117 2.117 0 0 0 1.27.423z" data-color="4"/>
        <path fill="#f5ba48" d="M78.74 54.186a2.117 2.117 0 0 0 1.693.847 2.117 2.117 0 0 0 1.27-.423l8.466-6.35a2.117 2.117 0 1 0-2.54-3.387l-8.466 6.35a2.117 2.117 0 0 0-.424 2.963z" data-color="4"/>
        <path fill="#f5ba48" d="M99.483 58.843a2.117 2.117 0 0 0-2.54-1.693l-10.584 2.116a2.127 2.127 0 0 0 .424 4.234h.423l10.583-2.117a2.117 2.117 0 0 0 1.694-2.54z" data-color="4"/>
        <path fill="#f5ba48" d="M2.116 59.266h25.4a2.117 2.117 0 0 0 2.117-2.116V23.283a2.117 2.117 0 0 0-2.117-2.117h-25.4a2.117 2.117 0 0 0-2.117 2.117V57.15a2.117 2.117 0 0 0 2.117 2.116zM4.233 25.4h21.166v29.633H4.233z" data-color="4"/>
        <path fill="#f5ba48" d="M19.05 29.633h-4.234a2.117 2.117 0 0 0 0 4.233h4.233a2.117 2.117 0 0 0 0-4.233z" data-color="4"/>
        <path fill="#f5ba48" d="M19.05 38.1h-8.467a2.117 2.117 0 0 0 0 4.233h8.466a2.117 2.117 0 0 0 0-4.233z" data-color="4"/>
        <path fill="#f5ba48" d="M19.05 46.566h-8.467a2.117 2.117 0 0 0 0 4.234h8.466a2.117 2.117 0 0 0 0-4.234z" data-color="4"/>
        <path fill="#f5ba48" d="M65.87 47.625a2.117 2.117 0 0 0-1.46-1.016 2.117 2.117 0 0 0-1.736.444L40.216 65.616H8.466a2.117 2.117 0 0 0-2.117 2.117v44.45H2.116A2.117 2.117 0 0 0-.001 114.3v4.233a10.583 10.583 0 0 0 10.584 10.584h55.033A10.583 10.583 0 0 0 76.2 118.533V114.3a2.117 2.117 0 0 0-2.116-2.117h-4.234v-27.75l11.854-4.444a2.117 2.117 0 0 0 1.249-1.27 2.117 2.117 0 0 0-.149-1.757zM45.698 93.493h.17l4.233 7.302a2.117 2.117 0 0 1 .212 1.61 2.117 2.117 0 0 1-.995 1.27 2.117 2.117 0 0 1-2.879-.763l-4.233-7.345zm-3.81-2.71l-7.323 4.234a4.233 4.233 0 0 1-3.218.423 4.233 4.233 0 0 1-2.56-1.968l-4.234-7.324a4.233 4.233 0 0 1 1.545-5.715l7.324-4.233 4.233 7.345zm-19.939-.698l2.117 3.662-1.842 1.058a2.117 2.117 0 0 1-1.608.212 2.117 2.117 0 0 1-1.291-.974 2.117 2.117 0 0 1-.212-1.608 2.117 2.117 0 0 1 .995-1.292zm50.017 28.448a6.35 6.35 0 0 1-6.35 6.35h-4.233v-2.116a2.117 2.117 0 0 0-4.234 0v2.116h-38.1v-2.116a2.117 2.117 0 0 0-4.233 0v2.116h-4.233a6.35 6.35 0 0 1-6.35-6.35v-2.116h67.733zm-6.35-6.35H10.583V69.85h24.405l-1.99 1.63-9.017 5.207a8.467 8.467 0 0 0-3.894 9.588l-2.117 1.207a6.35 6.35 0 0 0 1.524 11.641 6.35 6.35 0 0 0 1.65.212 6.477 6.477 0 0 0 3.176-.847l2.117-1.206a8.213 8.213 0 0 0 3.81 2.201 8.022 8.022 0 0 0 2.222.296 8.34 8.34 0 0 0 4.233-1.143l1.842-1.058 4.233 7.345a6.35 6.35 0 0 0 8.657 2.328 6.35 6.35 0 0 0 2.329-8.678l-3.853-6.71 15.706-5.842zM45.72 88.9L41.338 81.3l-4.403-7.62L63.5 51.901l14.436 24.997z" data-color="4"/>
    </g>
</svg>
