<?xml version="1.0" encoding="UTF-8" standalone="no"?>
<svg
   xmlns:dc="http://purl.org/dc/elements/1.1/"
   xmlns:cc="http://creativecommons.org/ns#"
   xmlns:rdf="http://www.w3.org/1999/02/22-rdf-syntax-ns#"
   xmlns:svg="http://www.w3.org/2000/svg"
   xmlns="http://www.w3.org/2000/svg"
   xmlns:sodipodi="http://sodipodi.sourceforge.net/DTD/sodipodi-0.dtd"
   xmlns:inkscape="http://www.inkscape.org/namespaces/inkscape"
   data-bbox="-0.002 0 180.625 135.38"
   viewBox="0 0 180.62496 135.38003"
   height="511.67212"
   width="682.67676"
   data-type="color"
   version="1.1"
   id="svg24"
   sodipodi:docname="Icon-newsletter-1.svg"
   inkscape:version="1.0.1 (3bc2e813f5, 2020-09-07)">
  <metadata
     id="metadata30">
    <rdf:RDF>
      <cc:Work
         rdf:about="">
        <dc:format>image/svg+xml</dc:format>
        <dc:type
           rdf:resource="http://purl.org/dc/dcmitype/StillImage" />
      </cc:Work>
    </rdf:RDF>
  </metadata>
  <defs
     id="defs28" />
  <sodipodi:namedview
     pagecolor="#ffffff"
     bordercolor="#666666"
     borderopacity="1"
     objecttolerance="10"
     gridtolerance="10"
     guidetolerance="10"
     inkscape:pageopacity="0"
     inkscape:pageshadow="2"
     inkscape:window-width="1920"
     inkscape:window-height="1057"
     id="namedview26"
     showgrid="false"
     inkscape:zoom="0.53965913"
     inkscape:cx="111.7368"
     inkscape:cy="195.33434"
     inkscape:window-x="-8"
     inkscape:window-y="-8"
     inkscape:window-maximized="1"
     inkscape:current-layer="svg24" />
  <g
     id="g22"
     transform="translate(0.002)">
    <path
       d="M 87.659,29.114 53.373,46.257 v -3.84 H 14.137 v 8.482 H -0.002 v 33.58 h 14.139 v 8.484 h 8.483 v 31.105 H 47.717 V 111.66 l -5.655,-5.656 V 98.62 h -5.303 v 9.58 l 5.655,5.657 v 4.91 H 27.923 V 92.963 h 25.45 v -4.195 l 34.285,17.145 v 6.844 H 107.1 V 22.622 H 87.658 Z M 48.069,87.66 H 19.44 V 61.86 H 14.138 V 79.18 H 5.3 V 56.202 H 19.44 V 47.72 H 48.07 Z M 87.659,99.984 53.373,82.842 V 52.186 L 87.66,35.042 Z m 5.303,-72.059 h 8.835 v 79.531 h -8.835 z"
       fill="#457b9d"
       data-color="1"
       id="path2"
       style="fill:#457b9d;fill-opacity:1" />
    <path
       d="M 28.277,53.728 H 39.59 v 5.303 H 28.277 Z"
       fill="#457b9d"
       data-color="1"
       id="path4"
       style="fill:#a8dadc;fill-opacity:1" />
    <path
       d="M 28.277,65.039 H 39.59 v 5.302 H 28.277 Z"
       fill="#457b9d"
       data-color="1"
       id="path6"
       style="fill:#a8dadc;fill-opacity:1" />
    <path
       d="M 28.277,76.349 H 39.59 v 5.302 H 28.277 Z"
       fill="#457b9d"
       data-color="1"
       id="path8"
       style="fill:#a8dadc;fill-opacity:1" />
    <path
       d="M 130.077,48.073 V 87.31 h 50.546 V 48.073 Z m 41.67,5.303 -16.222,16.222 -16.221,-16.222 z m -36.368,3.572 10.566,10.567 -10.566,10.566 z m 3.926,25.059 10.566,-10.654 5.655,5.61 5.656,-5.588 10.567,10.632 z M 175.321,78.08 164.755,67.515 175.321,56.948 Z"
       fill="#457b9d"
       data-color="1"
       id="path10"
       style="fill:#457b9d;fill-opacity:1" />
    <path
       d="m 115.938,135.38 h 50.546 V 96.142 h -50.546 z m 9.228,-5.303 10.566,-10.654 5.656,5.567 5.655,-5.567 10.567,10.654 z m 36.016,-3.927 -10.566,-10.565 10.566,-10.567 z m -3.572,-24.704 -16.222,16.223 -16.221,-16.223 z m -36.368,3.572 10.566,10.567 -10.566,10.566 z"
       fill="#457b9d"
       data-color="1"
       id="path12"
       style="fill:#457b9d;fill-opacity:1" />
    <path
       d="m 166.484,0 h -50.546 v 39.236 h 50.546 z m -8.875,5.303 -16.222,16.22 -16.221,-16.22 z m -36.368,3.572 10.566,10.566 -10.566,10.566 z m 3.926,25.058 10.565,-10.655 5.656,5.612 5.655,-5.589 10.567,10.632 z M 161.182,30.007 150.617,19.442 161.182,8.875 Z"
       fill="#457b9d"
       data-color="1"
       id="path14"
       style="fill:#45779d;fill-opacity:1;stroke-width:1.00013;stroke-miterlimit:4;stroke-dasharray:none" />
    <path
       d="m 115.938,53.376 h 5.303 v 5.655 h -5.303 z"
       fill="#457b9d"
       data-color="1"
       id="path16"
       style="fill:#a8dadc;fill-opacity:1" />
    <path
       d="m 115.938,64.686 h 5.303 v 5.655 h -5.303 z"
       fill="#457b9d"
       data-color="1"
       id="path18"
       style="fill:#a8dadc;fill-opacity:1" />
    <path
       d="m 115.938,75.996 h 5.303 v 5.655 h -5.303 z"
       fill="#457b9d"
       data-color="1"
       id="path20"
       style="fill:#a8dadc;fill-opacity:1" />
  </g>
</svg>
