<?xml version="1.0" encoding="UTF-8" standalone="no"?>
<svg
   xmlns:dc="http://purl.org/dc/elements/1.1/"
   xmlns:cc="http://creativecommons.org/ns#"
   xmlns:rdf="http://www.w3.org/1999/02/22-rdf-syntax-ns#"
   xmlns:svg="http://www.w3.org/2000/svg"
   xmlns="http://www.w3.org/2000/svg"
   xmlns:sodipodi="http://sodipodi.sourceforge.net/DTD/sodipodi-0.dtd"
   xmlns:inkscape="http://www.inkscape.org/namespaces/inkscape"
   data-bbox="-0.001 0 127.001 129.117"
   viewBox="0 0 127.00067 129.117"
   height="488"
   width="480.00253"
   data-type="color"
   version="1.1"
   id="svg58"
   sodipodi:docname="Icon-social-media-1.svg"
   inkscape:version="1.0.1 (3bc2e813f5, 2020-09-07)">
  <metadata
     id="metadata64">
    <rdf:RDF>
      <cc:Work
         rdf:about="">
        <dc:format>image/svg+xml</dc:format>
        <dc:type
           rdf:resource="http://purl.org/dc/dcmitype/StillImage" />
      </cc:Work>
    </rdf:RDF>
  </metadata>
  <defs
     id="defs62" />
  <sodipodi:namedview
     pagecolor="#ffffff"
     bordercolor="#666666"
     borderopacity="1"
     objecttolerance="10"
     gridtolerance="10"
     guidetolerance="10"
     inkscape:pageopacity="0"
     inkscape:pageshadow="2"
     inkscape:window-width="1920"
     inkscape:window-height="1057"
     id="namedview60"
     showgrid="false"
     inkscape:zoom="0.91188525"
     inkscape:cx="353.08807"
     inkscape:cy="225.62295"
     inkscape:window-x="-8"
     inkscape:window-y="-8"
     inkscape:window-maximized="1"
     inkscape:current-layer="svg58" />
  <g
     id="g56"
     transform="translate(8.3611282e-4)">
    <path
       d="m 2.116,114.3 h 71.967 v 4.233 A 8.467,8.467 0 0 1 65.616,127 H 10.583 a 8.467,8.467 0 0 1 -8.467,-8.467 z"
       fill="#f8daa1"
       data-color="1"
       id="path2"
       style="fill:#a8dadc;fill-opacity:1" />
    <path
       d="M 16.933,84.666 V 67.733 H 8.466 V 114.3 h 59.267 v -8.467 H 38.099 A 21.167,21.167 0 0 1 16.933,84.666 Z"
       fill="#ffffff"
       data-color="2"
       id="path4" />
    <path
       d="m 124.883,74.083 v 25.4 a 4.233,4.233 0 0 1 -4.233,4.233 h -25.4 a 4.233,4.233 0 0 1 -4.234,-4.233 v -25.4 a 4.233,4.233 0 0 1 4.233,-4.233 h 25.4 a 4.233,4.233 0 0 1 4.234,4.233 z"
       fill="#ffffff"
       data-color="2"
       id="path6" />
    <path
       d="m 114.3,86.783 a 6.35,6.35 0 1 1 -12.7,0 6.35,6.35 0 0 1 12.7,0 z"
       fill="#ffffff"
       data-color="2"
       id="path8" />
    <path
       d="m 112.183,84.666 a 2.117,2.117 0 1 1 -4.233,0 2.117,2.117 0 0 1 4.233,0 z"
       fill="#ffffff"
       data-color="2"
       id="path10" />
    <path
       d="m 69.85,19.05 a 16.9335,16.9335 0 1 1 -33.867,0 16.933,16.933 0 0 1 33.866,0 z"
       fill="#ffffff"
       data-color="2"
       id="path12" />
    <path
       d="M 48.683,25.4 V 12.7 l 12.7,6.35 z"
       fill="#ffffff"
       data-color="2"
       id="path14" />
    <path
       d="M 97.366,14.816 V 4.233 H 95.25 a 4.233,4.233 0 0 0 -4.233,4.233 v 25.4 A 4.233,4.233 0 0 0 95.25,38.1 h 25.4 a 4.233,4.233 0 0 0 4.234,-4.234 V 31.75 H 114.3 A 16.933,16.933 0 0 1 97.366,14.816 Z"
       fill="#ffffff"
       data-color="2"
       id="path16" />
    <path
       d="M 8.466,38.1 V 23.283 H 2.116 V 57.15 h 25.4 V 50.8 h -6.35 A 12.7,12.7 0 0 1 8.466,38.1 Z"
       fill="#ffffff"
       data-color="2"
       id="path18" />
    <path
       d="m 36.114,89.25 7.332,-4.234 8.467,14.664 a 4.233,4.233 0 0 1 -1.55,5.783 4.233,4.233 0 0 1 -5.782,-1.55 z"
       fill="#ffffff"
       data-color="2"
       id="path20" />
    <path
       d="M 80.962,78.02 44.788,91.567 34.205,73.237 64.029,48.683 Z"
       fill="#ffffff"
       data-color="2"
       id="path22" />
    <path
       d="m 25.048,78.53 9.165,-5.291 10.584,18.33 -9.166,5.292 a 6.35,6.35 0 0 1 -8.674,-2.322 l -4.233,-7.335 a 6.35,6.35 0 0 1 2.324,-8.674 z"
       fill="#f8daa8"
       data-color="3"
       id="path24"
       style="fill:#a8dadc;fill-opacity:1" />
    <path
       d="m 19.043,89.317 3.666,-2.117 4.233,7.332 -3.666,2.117 a 4.233,4.233 0 0 1 -5.782,-1.55 4.233,4.233 0 0 1 1.549,-5.782 z"
       fill="#ffffff"
       data-color="2"
       id="path26" />
    <path
       fill="#457b9d"
       d="m 114.3,10.583 h -4.234 a 6.35,6.35 0 0 0 -6.35,6.35 V 19.05 H 101.6 a 2.117,2.117 0 0 0 0,4.233 h 2.116 v 6.35 a 2.117,2.117 0 0 0 4.234,0 v -6.35 h 2.116 a 2.117,2.117 0 0 0 0,-4.233 h -2.116 v -2.117 a 2.117,2.117 0 0 1 2.116,-2.117 h 4.234 a 2.117,2.117 0 0 0 0,-4.233 z"
       data-color="4"
       id="path28" />
    <path
       fill="#457b9d"
       d="m 120.65,2.116 h -25.4 a 6.35,6.35 0 0 0 -6.35,6.35 v 25.4 a 6.35,6.35 0 0 0 6.35,6.35 h 25.4 a 6.35,6.35 0 0 0 6.35,-6.35 v -25.4 a 6.35,6.35 0 0 0 -6.35,-6.35 z m 2.116,31.75 a 2.117,2.117 0 0 1 -2.116,2.117 H 95.25 A 2.117,2.117 0 0 1 93.133,33.866 V 8.466 A 2.117,2.117 0 0 1 95.249,6.35 h 25.4 a 2.117,2.117 0 0 1 2.117,2.116 z"
       data-color="4"
       id="path30" />
    <path
       fill="#457b9d"
       d="m 120.65,67.733 h -25.4 a 6.35,6.35 0 0 0 -6.35,6.35 v 25.4 a 6.35,6.35 0 0 0 6.35,6.35 h 25.4 a 6.35,6.35 0 0 0 6.35,-6.35 v -25.4 a 6.35,6.35 0 0 0 -6.35,-6.35 z m 2.116,31.75 a 2.117,2.117 0 0 1 -2.116,2.117 h -25.4 a 2.117,2.117 0 0 1 -2.117,-2.117 v -25.4 a 2.117,2.117 0 0 1 2.116,-2.117 h 25.4 a 2.117,2.117 0 0 1 2.117,2.117 z"
       data-color="4"
       id="path32"
       style="fill:#457b9d;fill-opacity:1" />
    <path
       fill="#457b9d"
       d="m 107.95,78.316 a 8.467,8.467 0 1 0 8.466,8.467 8.467,8.467 0 0 0 -8.466,-8.467 z m 0,12.7 a 4.233,4.233 0 1 1 4.233,-4.233 4.233,4.233 0 0 1 -4.233,4.233 z"
       data-color="4"
       id="path34"
       style="fill:#457b9d;fill-opacity:1" />
    <path
       fill="#457b9d"
       d="m 47.56,27.199 a 2.117,2.117 0 0 0 1.123,0.317 2.117,2.117 0 0 0 0.952,-0.232 l 12.7,-6.35 a 2.117,2.117 0 0 0 0,-3.768 l -12.7,-6.35 A 2.117,2.117 0 0 0 46.566,12.7 v 12.7 a 2.117,2.117 0 0 0 0.995,1.799 z m 3.24,-11.07 5.841,2.92 -5.842,2.922 z"
       data-color="4"
       id="path36" />
    <path
       fill="#457b9d"
       d="M 52.916,38.1 A 19.05,19.05 0 1 0 33.866,19.05 19.05,19.05 0 0 0 52.916,38.1 Z m 0,-33.867 A 14.817,14.817 0 1 1 38.1,19.05 14.817,14.817 0 0 1 52.916,4.233 Z"
       data-color="4"
       id="path38" />
    <path
       fill="#457b9d"
       d="m 74.083,46.566 a 2.117,2.117 0 0 0 1.693,-0.846 l 6.35,-8.467 a 2.117,2.117 0 0 0 -3.387,-2.54 l -6.35,8.467 a 2.117,2.117 0 0 0 0.424,2.963 2.117,2.117 0 0 0 1.27,0.423 z"
       data-color="4"
       id="path40" />
    <path
       fill="#457b9d"
       d="m 78.74,54.186 a 2.117,2.117 0 0 0 1.693,0.847 2.117,2.117 0 0 0 1.27,-0.423 l 8.466,-6.35 a 2.117,2.117 0 1 0 -2.54,-3.387 l -8.466,6.35 a 2.117,2.117 0 0 0 -0.424,2.963 z"
       data-color="4"
       id="path42" />
    <path
       fill="#457b9d"
       d="m 99.483,58.843 a 2.117,2.117 0 0 0 -2.54,-1.693 l -10.584,2.116 a 2.1275885,2.1275885 0 0 0 0.424,4.234 h 0.423 l 10.583,-2.117 a 2.117,2.117 0 0 0 1.694,-2.54 z"
       data-color="4"
       id="path44" />
    <path
       fill="#457b9d"
       d="m 2.116,59.266 h 25.4 A 2.117,2.117 0 0 0 29.633,57.15 V 23.283 a 2.117,2.117 0 0 0 -2.117,-2.117 h -25.4 a 2.117,2.117 0 0 0 -2.117,2.117 V 57.15 a 2.117,2.117 0 0 0 2.117,2.116 z M 4.233,25.4 H 25.399 V 55.033 H 4.233 Z"
       data-color="4"
       id="path46" />
    <path
       fill="#457b9d"
       d="m 19.05,29.633 h -4.234 a 2.117,2.117 0 0 0 0,4.233 h 4.233 a 2.117,2.117 0 0 0 0,-4.233 z"
       data-color="4"
       id="path48" />
    <path
       fill="#457b9d"
       d="m 19.05,38.1 h -8.467 a 2.117,2.117 0 0 0 0,4.233 h 8.466 a 2.117,2.117 0 0 0 0,-4.233 z"
       data-color="4"
       id="path50" />
    <path
       fill="#457b9d"
       d="m 19.05,46.566 h -8.467 a 2.117,2.117 0 0 0 0,4.234 h 8.466 a 2.117,2.117 0 0 0 0,-4.234 z"
       data-color="4"
       id="path52" />
    <path
       fill="#457b9d"
       d="m 65.87,47.625 a 2.117,2.117 0 0 0 -1.46,-1.016 2.117,2.117 0 0 0 -1.736,0.444 L 40.216,65.616 H 8.466 a 2.117,2.117 0 0 0 -2.117,2.117 v 44.45 H 2.116 a 2.117,2.117 0 0 0 -2.117,2.117 v 4.233 a 10.583,10.583 0 0 0 10.584,10.584 H 65.616 A 10.583,10.583 0 0 0 76.2,118.533 V 114.3 a 2.117,2.117 0 0 0 -2.116,-2.117 H 69.85 v -27.75 l 11.854,-4.444 a 2.117,2.117 0 0 0 1.249,-1.27 2.117,2.117 0 0 0 -0.149,-1.757 z M 45.698,93.493 h 0.17 l 4.233,7.302 a 2.117,2.117 0 0 1 0.212,1.61 2.117,2.117 0 0 1 -0.995,1.27 2.117,2.117 0 0 1 -2.879,-0.763 l -4.233,-7.345 z m -3.81,-2.71 -7.323,4.234 a 4.233,4.233 0 0 1 -3.218,0.423 4.233,4.233 0 0 1 -2.56,-1.968 l -4.234,-7.324 a 4.233,4.233 0 0 1 1.545,-5.715 l 7.324,-4.233 4.233,7.345 z m -19.939,-0.698 2.117,3.662 -1.842,1.058 a 2.117,2.117 0 0 1 -1.608,0.212 2.117,2.117 0 0 1 -1.291,-0.974 2.117,2.117 0 0 1 -0.212,-1.608 2.117,2.117 0 0 1 0.995,-1.292 z m 50.017,28.448 a 6.35,6.35 0 0 1 -6.35,6.35 h -4.233 v -2.116 a 2.117,2.117 0 0 0 -4.234,0 v 2.116 h -38.1 v -2.116 a 2.117,2.117 0 0 0 -4.233,0 v 2.116 h -4.233 a 6.35,6.35 0 0 1 -6.35,-6.35 v -2.116 h 67.733 z m -6.35,-6.35 H 10.583 V 69.85 h 24.405 l -1.99,1.63 -9.017,5.207 a 8.467,8.467 0 0 0 -3.894,9.588 l -2.117,1.207 a 6.35,6.35 0 0 0 1.524,11.641 6.35,6.35 0 0 0 1.65,0.212 6.477,6.477 0 0 0 3.176,-0.847 l 2.117,-1.206 a 8.213,8.213 0 0 0 3.81,2.201 8.022,8.022 0 0 0 2.222,0.296 8.34,8.34 0 0 0 4.233,-1.143 l 1.842,-1.058 4.233,7.345 a 6.35,6.35 0 0 0 8.657,2.328 6.35,6.35 0 0 0 2.329,-8.678 L 49.91,91.863 65.616,86.021 Z M 45.72,88.9 41.338,81.3 36.935,73.68 63.5,51.901 77.936,76.898 Z"
       data-color="4"
       id="path54" />
  </g>
</svg>
