<?xml version="1.0" encoding="UTF-8"?>
<svg data-bbox="-0.002 0 180.625 135.38" xmlns="http://www.w3.org/2000/svg" viewBox="0 0 180.62 135.38" height="511.672" width="682.658" data-type="color">
    <g>
        <path d="M87.659 29.114L53.373 46.257v-3.84H14.137v8.482H-.002v33.58h14.139v8.484h8.483v31.105h25.097V111.66l-5.655-5.656V98.62h-5.303v9.58l5.655 5.657v4.91H27.923V92.963h25.45v-4.195l34.285 17.145v6.844H107.1V22.622H87.658zM48.069 87.66H19.44v-25.8h-5.302v17.32H5.3V56.202h14.14V47.72h28.63zm39.59 12.324L53.373 82.842V52.186L87.66 35.042zm5.303-72.059h8.835v79.531h-8.835z" fill="#e05729" data-color="1"/>
        <path d="M28.277 53.728H39.59v5.303H28.277z" fill="#e05729" data-color="1"/>
        <path d="M28.277 65.039H39.59v5.302H28.277z" fill="#e05729" data-color="1"/>
        <path d="M28.277 76.349H39.59v5.302H28.277z" fill="#e05729" data-color="1"/>
        <path d="M130.077 48.073V87.31h50.546V48.073zm41.67 5.303l-16.222 16.222-16.221-16.222zm-36.368 3.572l10.566 10.567-10.566 10.566zm3.926 25.059l10.566-10.654 5.655 5.61 5.656-5.588 10.567 10.632zm36.016-3.927l-10.566-10.565 10.566-10.567z" fill="#e05729" data-color="1"/>
        <path d="M115.938 135.38h50.546V96.142h-50.546zm9.228-5.303l10.566-10.654 5.656 5.567 5.655-5.567 10.567 10.654zm36.016-3.927l-10.566-10.565 10.566-10.567zm-3.572-24.704l-16.222 16.223-16.221-16.223zm-36.368 3.572l10.566 10.567-10.566 10.566z" fill="#e05729" data-color="1"/>
        <path d="M166.484 0h-50.546v39.236h50.546zm-8.875 5.303l-16.222 16.22-16.221-16.22zm-36.368 3.572l10.566 10.566-10.566 10.566zm3.926 25.058l10.565-10.655 5.656 5.612 5.655-5.589 10.567 10.632zm36.015-3.926l-10.565-10.565 10.565-10.567z" fill="#e05729" data-color="1"/>
        <path d="M115.938 53.376h5.303v5.655h-5.303z" fill="#e05729" data-color="1"/>
        <path d="M115.938 64.686h5.303v5.655h-5.303z" fill="#e05729" data-color="1"/>
        <path d="M115.938 75.996h5.303v5.655h-5.303z" fill="#e05729" data-color="1"/>
    </g>
</svg>
