<?xml version="1.0" encoding="UTF-8" standalone="no"?>
<svg
   xmlns:dc="http://purl.org/dc/elements/1.1/"
   xmlns:cc="http://creativecommons.org/ns#"
   xmlns:rdf="http://www.w3.org/1999/02/22-rdf-syntax-ns#"
   xmlns:svg="http://www.w3.org/2000/svg"
   xmlns="http://www.w3.org/2000/svg"
   xmlns:sodipodi="http://sodipodi.sourceforge.net/DTD/sodipodi-0.dtd"
   xmlns:inkscape="http://www.inkscape.org/namespaces/inkscape"
   data-bbox="0.001 -0.001 135.465 135.466"
   viewBox="0 0 135.46454 135.46601"
   height="511.99792"
   width="511.99237"
   data-type="color"
   version="1.1"
   id="svg90"
   sodipodi:docname="Icon-direct-marketing-2.svg"
   inkscape:version="1.0.1 (3bc2e813f5, 2020-09-07)">
  <metadata
     id="metadata96">
    <rdf:RDF>
      <cc:Work
         rdf:about="">
        <dc:format>image/svg+xml</dc:format>
        <dc:type
           rdf:resource="http://purl.org/dc/dcmitype/StillImage" />
      </cc:Work>
    </rdf:RDF>
  </metadata>
  <defs
     id="defs94" />
  <sodipodi:namedview
     pagecolor="#ffffff"
     bordercolor="#666666"
     borderopacity="1"
     objecttolerance="10"
     gridtolerance="10"
     guidetolerance="10"
     inkscape:pageopacity="0"
     inkscape:pageshadow="2"
     inkscape:window-width="1920"
     inkscape:window-height="1057"
     id="namedview92"
     showgrid="false"
     inkscape:zoom="0.30727981"
     inkscape:cx="398.16291"
     inkscape:cy="167.38553"
     inkscape:window-x="-8"
     inkscape:window-y="-8"
     inkscape:window-maximized="1"
     inkscape:current-layer="svg90" />
  <g
     id="g88"
     transform="translate(-0.001,0.00100838)">
    <path
       fill="#e3e7f2"
       d="m 54.186,90.31 h 2.258 a 9.031,9.031 0 0 1 9.03,9.03 v 4.516 a 9.031,9.031 0 0 1 -9.03,9.031 h -2.258 z"
       data-color="1"
       id="path2" />
    <path
       fill="#ffffff"
       d="m 20.32,110.63 h 9.03 v 18.062 a 4.516,4.516 0 1 1 -9.03,0 z"
       data-color="2"
       id="path4" />
    <path
       fill="#69c0cb"
       d="M 6.773,92.567 H 20.32 v 18.062 H 6.773 a 4.516,4.516 0 0 1 -4.515,-4.516 v -9.03 a 4.516,4.516 0 0 1 4.515,-4.516 z"
       data-color="3"
       id="path6"
       style="fill:#a8dadc;fill-opacity:1" />
    <path
       fill="#ffffff"
       d="m 56.443,79.02 v 45.156 L 36.123,110.629 V 92.567 Z"
       data-color="2"
       id="path8" />
    <path
       fill="#69c0cb"
       d="M 49.67,83.536 V 119.66 L 36.123,110.629 V 92.567 Z"
       data-color="3"
       id="path10"
       style="fill:#a8dadc;fill-opacity:1" />
    <path
       d="m 18.062,88.05 h 18.062 v 27.093 H 18.062 a 2.258,2.258 0 0 1 -2.258,-2.257 V 90.308 a 2.257,2.257 0 0 1 2.258,-2.258 z"
       fill="#ffffff"
       data-color="2"
       id="path12" />
    <path
       d="m 133.208,22.577 c -0.001,11.222 -9.098,20.318 -20.32,20.32 a 20.983,20.983 0 0 1 -3.386,-0.271 c -9.778,-1.66 -16.933,-10.131 -16.933,-20.05 0,-9.919 7.155,-18.388 16.933,-20.048 a 20.983,20.983 0 0 1 3.386,-0.271 c 11.222,0 20.319,9.098 20.32,20.32 z"
       fill="#ffffff"
       data-color="2"
       id="path14" />
    <path
       d="m 126.435,22.577 a 19.972,19.972 0 0 1 -2.348,9.46 20.264,20.264 0 0 1 -14.518,10.566 0.082,0.082 0 0 1 -0.067,0.023 11.045,11.045 0 0 1 -1.242,-0.271 c -0.361,-0.09 -0.723,-0.204 -1.084,-0.294 a 20.318,20.318 0 0 1 2.326,-39.533 c 9.777,1.66 16.932,10.13 16.933,20.049 z"
       fill="#ffffff"
       data-color="2"
       id="path16" />
    <path
       fill="#d4e1f4"
       d="m 124.175,33.504 a 11.843,11.843 0 0 1 -2.438,7.27 19.245,19.245 0 0 1 -8.85,2.122 17.99,17.99 0 0 1 -3.32,-0.293 20.264,20.264 0 0 0 14.518,-10.566 10.393,10.393 0 0 1 0.09,1.467 z"
       data-color="4"
       id="path18" />
    <path
       d="m 124.085,32.036 a 20.264,20.264 0 0 1 -14.517,10.566 26.49,26.49 0 0 1 -1.31,-0.248 c -0.36,-0.09 -0.722,-0.203 -1.083,-0.294 a 19.083,19.083 0 0 1 -3.138,-1.287 11.997,11.997 0 0 1 4.65,-18.197 h 0.023 a 6.45,6.45 0 0 0 8.354,0 h 0.022 a 11.769,11.769 0 0 1 7,9.46 z"
       fill="#ffffff"
       data-color="2"
       id="path20" />
    <path
       d="m 119.662,18.061 a 6.655,6.655 0 0 1 -2.574,5.306 h -0.023 a 6.677,6.677 0 0 1 -8.353,0 h -0.023 a 6.656,6.656 0 0 1 -2.574,-5.306 6.7735,6.7735 0 0 1 13.547,0 z"
       fill="#ffffff"
       data-color="2"
       id="path22" />
    <path
       d="m 104.673,36.275 c -0.074,-0.081 -0.151,-0.16 -0.224,-0.242 a 20.6,20.6 0 0 1 -0.748,-0.905 c -0.109,-0.138 -0.218,-0.273 -0.323,-0.413 a 20.321,20.321 0 0 1 -0.609,-0.868 20.458,20.458 0 0 1 -0.353,-0.543 19.988,19.988 0 0 1 -0.496,-0.843 21,21 0 0 1 -0.75,-1.476 20.2,20.2 0 0 1 -0.32,-0.75 20.14,20.14 0 0 1 -0.313,-0.806 c -0.1,-0.279 -0.188,-0.563 -0.277,-0.848 -0.08,-0.259 -0.162,-0.516 -0.232,-0.78 -0.083,-0.314 -0.15,-0.634 -0.22,-0.954 -0.052,-0.245 -0.11,-0.487 -0.154,-0.735 -0.065,-0.372 -0.11,-0.75 -0.154,-1.13 -0.025,-0.204 -0.06,-0.406 -0.077,-0.613 a 20.478,20.478 0 0 1 -0.081,-1.792 c 0.001,-9.881 7.106,-18.331 16.84,-20.029 a 20.37,20.37 0 0 0 -3.294,-0.29 20.983,20.983 0 0 0 -3.387,0.27 C 99.724,4.188 92.57,12.66 92.568,22.577 c 0,0.604 0.03,1.201 0.081,1.792 0.019,0.207 0.053,0.409 0.078,0.614 0.044,0.378 0.088,0.757 0.154,1.129 0.043,0.248 0.102,0.49 0.155,0.735 0.068,0.32 0.135,0.64 0.219,0.955 0.07,0.263 0.152,0.52 0.232,0.78 0.088,0.284 0.176,0.568 0.277,0.847 a 20.713,20.713 0 0 0 0.313,0.806 c 0.103,0.252 0.208,0.503 0.32,0.75 a 20.287,20.287 0 0 0 0.401,0.825 c 0.113,0.22 0.229,0.437 0.349,0.651 a 19.988,19.988 0 0 0 0.496,0.843 c 0.114,0.184 0.233,0.363 0.353,0.543 a 20.661,20.661 0 0 0 0.609,0.868 c 0.104,0.14 0.214,0.275 0.323,0.413 a 20.446,20.446 0 0 0 0.747,0.905 c 0.073,0.083 0.15,0.16 0.225,0.242 a 20.305,20.305 0 0 0 11.601,6.35 20.983,20.983 0 0 0 3.387,0.271 20.485,20.485 0 0 0 2.264,-0.133 c 0.119,-0.014 0.233,-0.038 0.351,-0.054 0.215,-0.027 0.42,-0.08 0.633,-0.113 a 20.303,20.303 0 0 1 -11.463,-6.321 z"
       fill="#ffffff"
       data-color="2"
       id="path24" />
    <path
       d="m 9.03,106.113 v -9.03 a 4.516,4.516 0 0 1 4.516,-4.516 H 6.773 a 4.516,4.516 0 0 0 -4.515,4.515 v 9.031 a 4.516,4.516 0 0 0 4.515,4.516 h 6.773 a 4.516,4.516 0 0 1 -4.515,-4.516 z"
       fill="#ffffff"
       data-color="2"
       id="path26" />
    <path
       d="m 112.888,0 a 22.558,22.558 0 0 0 -9.904,42.834 c 0.065,0.036 0.133,0.068 0.201,0.097 a 22.29,22.29 0 0 0 19.409,0 2.17,2.17 0 0 0 0.197,-0.096 22.558,22.558 0 0 0 12.095,-25.358 22.558,22.558 0 0 0 -21.998,-17.478 z m -7.35,39.06 a 8.833,8.833 0 0 1 -1.68,-5.195 9.041,9.041 0 0 1 4.714,-7.921 8.69,8.69 0 0 0 8.635,-10e-4 9.045,9.045 0 0 1 4.712,7.922 8.833,8.833 0 0 1 -1.68,5.194 17.895,17.895 0 0 1 -14.7,0 z m 7.35,-16.484 a 4.516,4.516 0 1 1 0,-9.03 4.516,4.516 0 0 1 0,9.03 z m 13.49,11.97 c 0.01,-0.228 0.057,-0.452 0.057,-0.681 a 13.513,13.513 0 0 0 -5.862,-11.121 8.943,8.943 0 0 0 1.347,-4.684 9.031,9.031 0 0 0 -18.062,0 8.941,8.941 0 0 0 1.347,4.684 13.512,13.512 0 0 0 -5.863,11.12 c 0,0.23 0.047,0.454 0.058,0.682 -6.454,-7.247 -6.027,-18.299 0.966,-25.027 6.993,-6.728 18.053,-6.729 25.046,0 6.993,6.728 7.42,17.78 0.965,25.027 z"
       fill="#457b9d"
       data-color="5"
       id="path28" />
    <path
       d="m 58.702,88.28 v -9.259 a 2.258,2.258 0 0 0 -3.51,-1.878 L 38.382,88.349 V 88.052 A 2.256,2.256 0 0 0 36.125,85.794 H 18.063 A 4.521,4.521 0 0 0 13.547,90.31 H 6.774 a 6.78,6.78 0 0 0 -6.773,6.773 v 9.031 a 6.78,6.78 0 0 0 6.773,6.773 h 6.773 a 4.521,4.521 0 0 0 4.516,4.516 v 11.289 a 6.773,6.773 0 0 0 13.546,0 v -11.289 h 4.516 a 2.256,2.256 0 0 0 2.258,-2.258 v -0.297 l 16.81,11.207 a 2.258,2.258 0 0 0 3.51,-1.879 v -9.259 a 11.307,11.307 0 0 0 9.03,-11.06 V 99.34 A 11.308,11.308 0 0 0 58.703,88.28 Z M 6.773,108.372 a 2.259,2.259 0 0 1 -2.257,-2.258 v -9.03 a 2.259,2.259 0 0 1 2.257,-2.258 h 6.773 v 13.546 H 6.773 Z m 20.32,20.32 a 2.258,2.258 0 0 1 -4.515,0 v -11.289 h 4.515 z m 6.773,-15.805 H 18.062 V 90.31 h 15.804 z m 20.32,7.071 -15.804,-10.537 V 93.776 L 54.186,83.239 Z m 9.03,-16.102 a 6.787,6.787 0 0 1 -4.515,6.388 v -17.29 a 6.788,6.788 0 0 1 4.516,6.387 z"
       fill="#457b9d"
       data-color="5"
       id="path30" />
    <path
       d="m 76.763,99.34 h -2.258 a 2.258,2.258 0 1 0 0,4.515 h 2.258 a 2.258,2.258 0 1 0 0,-4.515 z"
       fill="#457b9d"
       data-color="5"
       id="path32" />
    <path
       d="m 107.769,64.587 a 22.517,22.517 0 0 0 -4.148,-2.998 2.256,2.256 0 0 0 -3.363,1.991 2.256,2.256 0 0 0 1.15,1.942 18.162,18.162 0 0 1 3.318,2.399 2.257,2.257 0 1 0 3.043,-3.334 z"
       fill="#457b9d"
       data-color="5"
       id="path34" />
    <path
       d="m 110.092,93.823 a 2.26,2.26 0 0 0 1.949,-1.113 22.456,22.456 0 0 0 2.075,-4.68 2.2571662,2.2571662 0 0 0 -4.309,-1.346 17.953,17.953 0 0 1 -1.66,3.737 2.258,2.258 0 0 0 1.945,3.402 z"
       fill="#457b9d"
       data-color="5"
       id="path36" />
    <path
       d="m 18.179,57.764 a 2.257,2.257 0 0 0 0.996,3.034 22.475,22.475 0 0 0 4.803,1.774 2.258,2.258 0 0 0 2.724,-1.659 2.258,2.258 0 0 0 -1.653,-2.728 17.902,17.902 0 0 1 -3.836,-1.418 2.26,2.26 0 0 0 -3.034,0.997 z"
       fill="#457b9d"
       data-color="5"
       id="path38" />
    <path
       d="m 112.656,80.486 a 2.513,2.513 0 0 0 0.339,-0.024 2.262,2.262 0 0 0 1.896,-2.571 22.613,22.613 0 0 0 -1.336,-4.946 2.258,2.258 0 0 0 -3.87,-0.567 2.259,2.259 0 0 0 -0.328,2.234 17.886,17.886 0 0 1 1.067,3.954 2.26,2.26 0 0 0 2.232,1.92 z"
       fill="#457b9d"
       data-color="5"
       id="path40" />
    <path
       d="m 102.549,96.332 a 17.974,17.974 0 0 1 -3.643,1.863 2.257,2.257 0 0 0 -0.655,3.867 2.258,2.258 0 0 0 2.238,0.362 22.612,22.612 0 0 0 4.56,-2.33 2.2584643,2.2584643 0 1 0 -2.5,-3.762 z"
       fill="#457b9d"
       data-color="5"
       id="path42" />
    <path
       d="m 31.443,60.957 a 2.256,2.256 0 0 0 2.257,2.258 h 4.617 a 2.258,2.258 0 0 0 0,-4.515 H 33.7 a 2.256,2.256 0 0 0 -2.257,2.257 z"
       fill="#457b9d"
       data-color="5"
       id="path44" />
    <path
       d="m 45.296,60.957 a 2.256,2.256 0 0 0 2.258,2.258 h 4.617 a 2.258,2.258 0 0 0 0,-4.515 h -4.617 a 2.256,2.256 0 0 0 -2.258,2.257 z"
       fill="#457b9d"
       data-color="5"
       id="path46" />
    <path
       d="M 44.256,18.061 H 39.64 a 2.258,2.258 0 0 0 -2.257,2.258 2.258,2.258 0 0 0 2.257,2.257 h 4.617 a 2.258,2.258 0 0 0 0,-4.515 z"
       fill="#457b9d"
       data-color="5"
       id="path48" />
    <path
       d="M 58.107,18.061 H 53.49 a 2.258,2.258 0 0 0 -2.258,2.258 2.258,2.258 0 0 0 2.258,2.257 h 4.617 a 2.258,2.258 0 0 0 0,-4.515 z"
       fill="#457b9d"
       data-color="5"
       id="path50" />
    <path
       d="m 74.22,20.32 a 2.256,2.256 0 0 0 -2.258,-2.259 h -4.617 a 2.258,2.258 0 0 0 -2.257,2.258 2.258,2.258 0 0 0 2.257,2.258 h 4.617 a 2.256,2.256 0 0 0 2.258,-2.258 z"
       fill="#457b9d"
       data-color="5"
       id="path52" />
    <path
       d="M 93.86,58.74 A 24.41,24.41 0 0 0 92.568,58.7 h -3.455 a 2.258,2.258 0 0 0 0,4.516 h 3.442 a 20.648,20.648 0 0 1 1.045,0.03 c 0.044,0.003 0.088,0.005 0.132,0.005 a 2.257,2.257 0 0 0 0.128,-4.51 z"
       fill="#457b9d"
       data-color="5"
       id="path54" />
    <path
       d="m 16.053,22.392 a 22.721,22.721 0 0 0 -3.768,3.463 2.259,2.259 0 0 0 3.413,2.96 18.201,18.201 0 0 1 3.019,-2.777 2.258,2.258 0 1 0 -2.664,-3.646 z"
       fill="#457b9d"
       data-color="5"
       id="path56" />
    <path
       d="m 90.616,99.34 h -4.617 a 2.258,2.258 0 1 0 0,4.515 h 4.617 a 2.258,2.258 0 0 0 0,-4.515 z"
       fill="#457b9d"
       data-color="5"
       id="path58" />
    <path
       d="M 79.877,58.7 H 75.26 a 2.258,2.258 0 0 0 0,4.516 h 4.617 a 2.258,2.258 0 0 0 0,-4.516 z"
       fill="#457b9d"
       data-color="5"
       id="path60" />
    <path
       d="M 30.403,18.061 H 29.35 a 22.587,22.587 0 0 0 -3.94,0.344 2.258,2.258 0 0 0 0.39,4.48 c 0.133,0 0.265,-0.011 0.395,-0.035 a 18.333,18.333 0 0 1 3.155,-0.273 h 1.052 a 2.258,2.258 0 0 0 2.258,-2.258 2.258,2.258 0 0 0 -2.258,-2.258 z"
       fill="#457b9d"
       data-color="5"
       id="path62" />
    <path
       d="m 9.884,46.9 a 2.257,2.257 0 0 0 -1.133,2.985 22.513,22.513 0 0 0 2.615,4.4 2.256,2.256 0 0 0 3.162,0.431 A 2.256,2.256 0 0 0 14.96,51.555 18.192,18.192 0 0 1 12.87,48.034 2.258,2.258 0 0 0 9.883,46.9 Z"
       fill="#457b9d"
       data-color="5"
       id="path64" />
    <path
       d="m 66.023,58.7 h -4.617 a 2.258,2.258 0 0 0 0,4.516 h 4.617 a 2.258,2.258 0 0 0 0,-4.516 z"
       fill="#457b9d"
       data-color="5"
       id="path66" />
    <path
       d="m 10.283,33.24 a 2.266,2.266 0 0 0 -2.758,1.607 22.663,22.663 0 0 0 -0.739,5.06 2.255,2.255 0 0 0 2.183,2.329 0.765,0.765 0 0 0 0.075,0.002 2.256,2.256 0 0 0 2.254,-2.185 18.357,18.357 0 0 1 0.593,-4.055 2.258,2.258 0 0 0 -1.608,-2.758 z"
       fill="#457b9d"
       data-color="5"
       id="path68" />
    <path
       d="M 85.795,20.32 A 2.256,2.256 0 0 0 83.538,18.061 H 81.28 a 2.258,2.258 0 0 0 -2.258,2.258 2.258,2.258 0 0 0 2.258,2.258 h 2.257 a 2.256,2.256 0 0 0 2.258,-2.258 z"
       fill="#457b9d"
       data-color="5"
       id="path70" />
    <path
       d="m 117.402,117.403 a 2.256,2.256 0 0 0 2.258,-2.258 v -2.258 a 2.258,2.258 0 0 0 -4.516,0 v 2.258 a 2.256,2.256 0 0 0 2.258,2.258 z"
       fill="#457b9d"
       data-color="5"
       id="path72" />
    <path
       d="m 117.402,121.916 a 2.256,2.256 0 0 0 -2.258,2.258 v 2.258 a 2.258,2.258 0 0 0 4.516,0 v -2.258 a 2.256,2.256 0 0 0 -2.258,-2.258 z"
       fill="#457b9d"
       data-color="5"
       id="path74" />
    <path
       d="m 112.888,117.403 h -2.257 a 2.258,2.258 0 1 0 0,4.515 h 2.257 a 2.258,2.258 0 1 0 0,-4.515 z"
       fill="#457b9d"
       data-color="5"
       id="path76" />
    <path
       d="m 124.175,117.403 h -2.257 a 2.258,2.258 0 1 0 0,4.515 h 2.257 a 2.258,2.258 0 1 0 0,-4.515 z"
       fill="#457b9d"
       data-color="5"
       id="path78" />
    <path
       d="m 58.702,31.607 a 2.256,2.256 0 0 0 -2.257,2.258 v 2.258 a 2.258,2.258 0 0 0 4.515,0 v -2.258 a 2.256,2.256 0 0 0 -2.258,-2.258 z"
       fill="#457b9d"
       data-color="5"
       id="path80" />
    <path
       d="m 58.702,42.897 a 2.256,2.256 0 0 0 -2.257,2.258 v 2.257 a 2.258,2.258 0 0 0 4.515,0 v -2.257 a 2.256,2.256 0 0 0 -2.258,-2.258 z"
       fill="#457b9d"
       data-color="5"
       id="path82" />
    <path
       d="m 49.67,40.637 a 2.256,2.256 0 0 0 2.257,2.258 h 2.258 a 2.258,2.258 0 0 0 0,-4.515 h -2.258 a 2.256,2.256 0 0 0 -2.257,2.257 z"
       fill="#457b9d"
       data-color="5"
       id="path84" />
    <path
       d="m 63.216,42.897 h 2.258 a 2.258,2.258 0 0 0 0,-4.515 h -2.258 a 2.258,2.258 0 0 0 0,4.515 z"
       fill="#457b9d"
       data-color="5"
       id="path86" />
  </g>
</svg>
