<?xml version="1.0" encoding="UTF-8"?>
<svg data-bbox="0 0.005 512.009 512" viewBox="0 0 512.009 512.009" xmlns="http://www.w3.org/2000/svg" data-type="color">
    <g>
        <path d="M204.8 341.338h8.533c18.851 0 34.133 15.282 34.133 34.133v17.067c0 18.851-15.282 34.133-34.133 34.133H204.8v-85.333z" fill="#e3e7f2" data-color="1"/>
        <path d="M76.8 418.138h34.133v68.267c0 9.426-7.641 17.067-17.067 17.067S76.8 495.83 76.8 486.405v-68.267z" fill="#d4e1f4" data-color="2"/>
        <path d="M25.6 349.871h51.2v68.267H25.6c-9.426 0-17.067-7.641-17.067-17.067v-34.133c0-9.426 7.641-17.067 17.067-17.067z" fill="#d4e1f4" data-color="2"/>
        <path fill="#a4c2f7" d="M213.333 298.671v170.667l-76.8-51.2v-68.267l76.8-51.2z" data-color="3"/>
        <path fill="#d4e1f4" d="M187.733 315.738v136.533l-51.2-34.133v-68.267l51.2-34.133z" data-color="2"/>
        <path d="M68.267 332.805h68.267v102.4H68.267a8.533 8.533 0 0 1-8.533-8.533v-85.333a8.532 8.532 0 0 1 8.533-8.534z" fill="#e3e7f2" data-color="1"/>
        <path d="M503.467 85.338c-.004 42.414-34.386 76.796-76.8 76.8a79.307 79.307 0 0 1-12.8-1.024c-36.957-6.273-63.998-38.291-63.998-75.776s27.041-69.503 63.998-75.776a79.307 79.307 0 0 1 12.8-1.024c42.414.003 76.796 34.386 76.8 76.8z" fill="#a4c2f7" data-color="3"/>
        <path d="M477.867 85.338a75.487 75.487 0 0 1-8.875 35.755 76.588 76.588 0 0 1-54.869 39.936.31.31 0 0 1-.256.085 41.745 41.745 0 0 1-4.693-1.024c-1.365-.341-2.731-.768-4.096-1.109-34.336-10.056-57.179-42.491-55.078-78.208 2.101-35.717 28.589-65.25 63.867-71.211 36.955 6.276 63.996 38.291 64 75.776z" fill="#e3e7f2" data-color="1"/>
        <path d="M469.333 126.639a44.76 44.76 0 0 1-9.216 27.477 72.738 72.738 0 0 1-33.451 8.021 67.998 67.998 0 0 1-12.544-1.109 76.588 76.588 0 0 0 54.869-39.936 39.28 39.28 0 0 1 .342 5.547z" fill="#d4e1f4" data-color="2"/>
        <path d="M468.992 121.093a76.588 76.588 0 0 1-54.869 39.936c-1.621-.256-3.328-.597-4.949-.939-1.365-.341-2.731-.768-4.096-1.109a72.127 72.127 0 0 1-11.861-4.864 45.343 45.343 0 0 1 17.579-68.778h.085c9.102 7.737 22.471 7.737 31.573 0h.085a44.48 44.48 0 0 1 26.453 35.754z" fill="#ffffff" data-color="4"/>
        <path d="M452.267 68.271a25.154 25.154 0 0 1-9.728 20.053h-.085c-9.225 7.396-22.348 7.396-31.573 0h-.085a25.155 25.155 0 0 1-9.728-20.053c0-14.138 11.462-25.6 25.6-25.6s25.599 11.462 25.599 25.6z" fill="#ffffff" data-color="4"/>
        <path d="M395.619 137.111c-.28-.306-.573-.601-.849-.912a77.86 77.86 0 0 1-2.826-3.423c-.41-.519-.825-1.031-1.221-1.56a76.805 76.805 0 0 1-2.3-3.282 77.324 77.324 0 0 1-1.335-2.049 75.548 75.548 0 0 1-1.875-3.187 79.37 79.37 0 0 1-2.832-5.58 76.345 76.345 0 0 1-1.21-2.835 76.12 76.12 0 0 1-1.185-3.045c-.379-1.055-.711-2.129-1.045-3.205-.302-.979-.613-1.95-.878-2.945-.316-1.189-.57-2.4-.829-3.61-.198-.926-.421-1.841-.585-2.778-.247-1.405-.415-2.836-.583-4.267-.092-.776-.223-1.538-.292-2.32a77.4 77.4 0 0 1-.306-6.773c.007-37.347 26.861-69.284 63.652-75.701a76.99 76.99 0 0 0-12.452-1.099 79.307 79.307 0 0 0-12.8 1.024c-36.956 6.276-63.996 38.291-64 75.776 0 2.283.11 4.54.306 6.773.069.782.2 1.545.292 2.32.169 1.431.335 2.861.583 4.267.165.938.387 1.853.585 2.778.259 1.21.513 2.422.829 3.61.265.995.576 1.967.878 2.945.333 1.076.666 2.15 1.045 3.205a78.288 78.288 0 0 0 1.185 3.045c.39.953.784 1.902 1.21 2.835a76.678 76.678 0 0 0 1.515 3.119c.425.83.864 1.65 1.317 2.461a75.548 75.548 0 0 0 1.875 3.187c.433.693.881 1.371 1.335 2.049a78.09 78.09 0 0 0 2.3 3.282c.396.529.811 1.041 1.221 1.56a77.278 77.278 0 0 0 2.826 3.423c.276.311.569.606.849.912a76.746 76.746 0 0 0 43.848 24.003 79.307 79.307 0 0 0 12.8 1.024c2.86-.01 5.716-.178 8.557-.504.449-.051.882-.143 1.328-.203.811-.104 1.59-.3 2.392-.429a76.735 76.735 0 0 1-43.325-23.891z" fill="#ffffff" data-color="4"/>
        <path d="M34.133 401.071v-34.133c0-9.426 7.641-17.067 17.067-17.067H25.6c-9.426 0-17.067 7.641-17.067 17.067v34.133c0 9.426 7.641 17.066 17.067 17.067h25.6c-9.426 0-17.066-7.641-17.067-17.067z" fill="#ffffff" data-color="4"/>
        <path d="M426.667.005c-39.715-.034-74.194 27.357-83.141 66.051s10.006 78.441 45.705 95.845c.248.136.503.259.763.369a84.245 84.245 0 0 0 73.356-.005 8.2 8.2 0 0 0 .744-.358c35.703-17.4 54.662-57.148 45.716-95.845C500.865 27.364 466.384-.03 426.667.005zm-27.779 147.632a33.386 33.386 0 0 1-6.354-19.632 34.173 34.173 0 0 1 17.819-29.938 32.848 32.848 0 0 0 32.635-.004 34.186 34.186 0 0 1 17.812 29.941 33.386 33.386 0 0 1-6.354 19.632 67.634 67.634 0 0 1-55.558.001zm27.779-62.299c-9.426 0-17.067-7.641-17.067-17.067s7.641-17.067 17.067-17.067 17.067 7.641 17.067 17.067c-.013 9.421-7.647 17.055-17.067 17.067zm50.982 45.242c.044-.863.218-1.708.218-2.576a51.074 51.074 0 0 0-22.157-42.033 33.801 33.801 0 0 0 5.091-17.701c0-18.851-15.282-34.133-34.133-34.133s-34.133 15.282-34.133 34.133a33.795 33.795 0 0 0 5.091 17.701 51.069 51.069 0 0 0-22.157 42.033c0 .867.175 1.713.219 2.576-24.393-27.392-22.782-69.163 3.649-94.594s68.233-25.431 94.664 0c26.429 25.431 28.041 67.202 3.648 94.594z" fill="#428dff" data-color="5"/>
        <path d="M221.867 333.667v-34.996a8.534 8.534 0 0 0-13.267-7.1l-63.533 42.355v-1.122a8.525 8.525 0 0 0-8.533-8.533H68.267c-9.421.012-17.054 7.646-17.067 17.067H25.6c-14.132.015-25.585 11.468-25.6 25.6v34.133c.015 14.132 11.468 25.585 25.6 25.6h25.6c.012 9.421 7.646 17.054 17.067 17.067v42.667c0 14.138 11.462 25.6 25.6 25.6s25.6-11.462 25.6-25.6v-42.667h17.067a8.525 8.525 0 0 0 8.533-8.533v-1.122l63.533 42.355a8.533 8.533 0 0 0 13.267-7.1v-34.996c19.85-4.08 34.105-21.539 34.133-41.804v-17.067c-.028-20.264-14.283-37.724-34.133-41.804zM25.6 409.605a8.538 8.538 0 0 1-8.533-8.533v-34.133a8.538 8.538 0 0 1 8.533-8.533h25.6v51.2H25.6zm76.8 76.8a8.533 8.533 0 0 1-17.066 0v-42.667H102.4v42.667zm25.6-59.734H68.267v-85.333H128v85.333zm76.8 26.725l-59.733-39.825v-59.133l59.733-39.825v138.783zm34.133-60.858a25.653 25.653 0 0 1-17.067 24.142v-65.35a25.655 25.655 0 0 1 17.067 24.142v17.066z" fill="#428dff" data-color="5"/>
        <path d="M290.133 375.471H281.6c-4.713 0-8.533 3.82-8.533 8.533s3.82 8.533 8.533 8.533h8.533c4.713 0 8.533-3.82 8.533-8.533s-3.82-8.533-8.533-8.533z" fill="#428dff" data-color="5"/>
        <path d="M407.325 244.121a85.103 85.103 0 0 0-15.675-11.333 8.527 8.527 0 0 0-12.712 7.527 8.527 8.527 0 0 0 4.346 7.339 68.643 68.643 0 0 1 12.542 9.067 8.53 8.53 0 1 0 11.499-12.6z" fill="#428dff" data-color="5"/>
        <path d="M416.1 354.621a8.544 8.544 0 0 0 7.367-4.208 84.876 84.876 0 0 0 7.842-17.692 8.53 8.53 0 0 0-16.284-5.084 67.853 67.853 0 0 1-6.275 14.125 8.535 8.535 0 0 0 7.35 12.859z" fill="#428dff" data-color="5"/>
        <path d="M68.708 218.33a8.532 8.532 0 0 0 3.767 11.467 84.946 84.946 0 0 0 18.15 6.708 8.535 8.535 0 0 0 10.299-6.271 8.534 8.534 0 0 0-6.249-10.312 67.662 67.662 0 0 1-14.5-5.358 8.542 8.542 0 0 0-11.467 3.766z" fill="#428dff" data-color="5"/>
        <path d="M425.792 304.213a9.497 9.497 0 0 0 1.283-.092 8.548 8.548 0 0 0 7.167-9.717 85.466 85.466 0 0 0-5.05-18.692 8.534 8.534 0 0 0-14.628-2.145 8.537 8.537 0 0 0-1.239 8.446 67.6 67.6 0 0 1 4.033 14.942 8.545 8.545 0 0 0 8.434 7.258z" fill="#428dff" data-color="5"/>
        <path d="M387.592 364.105a67.934 67.934 0 0 1-13.767 7.042 8.532 8.532 0 0 0-2.477 14.615 8.534 8.534 0 0 0 8.461 1.368 85.465 85.465 0 0 0 17.233-8.808 8.535 8.535 0 1 0-9.45-14.217z" fill="#428dff" data-color="5"/>
        <path d="M118.842 230.405a8.525 8.525 0 0 0 8.533 8.533h17.45a8.533 8.533 0 0 0 0-17.066h-17.45a8.525 8.525 0 0 0-8.533 8.533z" fill="#428dff" data-color="5"/>
        <path d="M171.2 230.405a8.525 8.525 0 0 0 8.533 8.533h17.45a8.533 8.533 0 0 0 0-17.066h-17.45a8.525 8.525 0 0 0-8.533 8.533z" fill="#428dff" data-color="5"/>
        <path d="M167.267 68.271h-17.45a8.533 8.533 0 0 0-8.533 8.533 8.533 8.533 0 0 0 8.533 8.533h17.45a8.533 8.533 0 0 0 0-17.066z" fill="#428dff" data-color="5"/>
        <path d="M219.625 68.271h-17.45a8.533 8.533 0 0 0-8.533 8.533 8.533 8.533 0 0 0 8.533 8.533h17.45a8.533 8.533 0 0 0 0-17.066z" fill="#428dff" data-color="5"/>
        <path d="M280.517 76.805a8.525 8.525 0 0 0-8.533-8.533h-17.45a8.533 8.533 0 0 0-8.533 8.533 8.533 8.533 0 0 0 8.533 8.533h17.45a8.525 8.525 0 0 0 8.533-8.533z" fill="#428dff" data-color="5"/>
        <path d="M354.75 222.021a92.26 92.26 0 0 0-4.883-.15h-13.058a8.533 8.533 0 0 0 0 17.066h13.008a78.04 78.04 0 0 1 3.95.117c.167.009.333.017.5.017a8.532 8.532 0 0 0 .483-17.05z" fill="#428dff" data-color="5"/>
        <path d="M60.675 84.638A85.877 85.877 0 0 0 46.433 97.73a8.536 8.536 0 0 0 12.9 11.183 68.793 68.793 0 0 1 11.408-10.492 8.534 8.534 0 1 0-10.066-13.783z" fill="#428dff" data-color="5"/>
        <path d="M342.492 375.471h-17.45c-4.713 0-8.533 3.82-8.533 8.533s3.82 8.533 8.533 8.533h17.45a8.533 8.533 0 0 0 0-17.066z" fill="#428dff" data-color="5"/>
        <path d="M301.9 221.871h-17.45a8.533 8.533 0 0 0 0 17.066h17.45a8.533 8.533 0 0 0 0-17.066z" fill="#428dff" data-color="5"/>
        <path d="M114.908 68.271h-3.975a85.368 85.368 0 0 0-14.892 1.3 8.533 8.533 0 0 0 1.475 16.934c.5.001 1-.044 1.492-.133a69.29 69.29 0 0 1 11.925-1.033h3.975a8.533 8.533 0 0 0 8.533-8.533 8.533 8.533 0 0 0-8.533-8.535z" fill="#428dff" data-color="5"/>
        <path d="M37.358 177.271a8.53 8.53 0 0 0-4.283 11.283 85.09 85.09 0 0 0 9.883 16.626 8.528 8.528 0 0 0 11.95 1.633 8.528 8.528 0 0 0 1.633-11.95 68.758 68.758 0 0 1-7.9-13.308 8.535 8.535 0 0 0-11.283-4.284z" fill="#428dff" data-color="5"/>
        <path d="M249.542 221.871h-17.45a8.533 8.533 0 0 0 0 17.066h17.45a8.533 8.533 0 0 0 0-17.066z" fill="#428dff" data-color="5"/>
        <path d="M38.867 125.638a8.563 8.563 0 0 0-10.425 6.075 85.658 85.658 0 0 0-2.792 19.125 8.523 8.523 0 0 0 8.25 8.8c.092.009.183.009.283.009a8.525 8.525 0 0 0 8.517-8.258 69.38 69.38 0 0 1 2.242-15.325 8.534 8.534 0 0 0-6.075-10.426z" fill="#428dff" data-color="5"/>
        <path d="M324.267 76.805a8.525 8.525 0 0 0-8.533-8.533H307.2a8.533 8.533 0 0 0-8.533 8.533 8.533 8.533 0 0 0 8.533 8.533h8.533a8.528 8.528 0 0 0 8.534-8.533z" fill="#428dff" data-color="5"/>
        <path d="M443.733 443.738a8.525 8.525 0 0 0 8.533-8.533v-8.533a8.533 8.533 0 0 0-17.066 0v8.533a8.525 8.525 0 0 0 8.533 8.533z" fill="#428dff" data-color="5"/>
        <path d="M443.733 460.805a8.525 8.525 0 0 0-8.533 8.533v8.533a8.533 8.533 0 0 0 17.066 0v-8.533a8.525 8.525 0 0 0-8.533-8.533z" fill="#428dff" data-color="5"/>
        <path d="M426.667 443.738h-8.533c-4.713 0-8.533 3.82-8.533 8.533s3.82 8.533 8.533 8.533h8.533c4.713 0 8.533-3.82 8.533-8.533s-3.82-8.533-8.533-8.533z" fill="#428dff" data-color="5"/>
        <path d="M469.333 443.738H460.8c-4.713 0-8.533 3.82-8.533 8.533s3.82 8.533 8.533 8.533h8.533c4.713 0 8.533-3.82 8.533-8.533s-3.82-8.533-8.533-8.533z" fill="#428dff" data-color="5"/>
        <path d="M221.867 119.471a8.525 8.525 0 0 0-8.533 8.533v8.533a8.533 8.533 0 0 0 17.066 0v-8.533a8.525 8.525 0 0 0-8.533-8.533z" fill="#428dff" data-color="5"/>
        <path d="M221.867 162.138a8.525 8.525 0 0 0-8.533 8.533v8.533a8.533 8.533 0 0 0 17.066 0v-8.533a8.525 8.525 0 0 0-8.533-8.533z" fill="#428dff" data-color="5"/>
        <path d="M187.733 153.605a8.525 8.525 0 0 0 8.533 8.533h8.533a8.533 8.533 0 0 0 0-17.066h-8.533a8.525 8.525 0 0 0-8.533 8.533z" fill="#428dff" data-color="5"/>
        <path d="M238.933 162.138h8.533a8.533 8.533 0 0 0 0-17.066h-8.533a8.533 8.533 0 0 0 0 17.066z" fill="#428dff" data-color="5"/>
    </g>
</svg>
