<?xml version="1.0" encoding="UTF-8"?>
<svg data-bbox="0 0 512 383.75" xmlns="http://www.w3.org/2000/svg" width="512pt" viewBox="0 -64 512 512" height="512pt" data-type="shape">
    <g>
        <path d="M248.484 82.527l-97.187 48.594v-10.887H40.078v24.047H0v95.188h40.078v24.047h24.047v88.171h71.14v-35.175l-16.03-16.032v-20.933h-15.032v27.156l16.031 16.035v13.918H79.156v-73.14h72.14v-11.891l97.188 48.598v19.402h55.11v-255.5h-55.11zM136.266 248.484H55.109v-73.14H40.08v49.094H15.03v-65.125h40.08v-24.047h81.157zm112.218 34.934l-97.187-48.594v-86.898l97.187-48.598zm15.032-204.262h25.046v225.438h-25.046zm0 0"/>
        <path d="M80.156 152.297h32.063v15.031H80.156zm0 0"/>
        <path d="M80.156 184.36h32.063v15.03H80.156zm0 0"/>
        <path d="M80.156 216.422h32.063v15.031H80.156zm0 0"/>
        <path d="M368.719 136.266v111.218H512V136.266zm118.125 15.03l-45.985 45.985-45.98-45.984zM383.75 161.423l29.95 29.953-29.95 29.95zm11.129 71.031l29.95-30.2 16.03 15.903 16.032-15.84 29.953 30.137zm102.09-11.129l-29.95-29.949 29.95-29.953zm0 0"/>
        <path d="M328.64 383.75h143.282V272.531H328.64zm26.16-15.031l29.95-30.2 16.031 15.782 16.031-15.781 29.954 30.199zm102.09-11.13l-29.949-29.948 29.95-29.954zm-10.124-70.027l-45.985 45.985-45.98-45.985zm-103.094 10.125l29.95 29.954-29.95 29.949zm0 0"/>
        <path d="M471.922 0H328.64v111.219h143.28zm-25.156 15.031l-45.985 45.98-45.98-45.98zM343.672 25.156l29.95 29.953-29.95 29.95zM354.8 96.187l29.949-30.203 16.031 15.907 16.031-15.84 29.954 30.136zM456.89 85.06l-29.95-29.95 29.95-29.953zm0 0"/>
        <path d="M328.64 151.297h15.032v16.031H328.64zm0 0"/>
        <path d="M328.64 183.36h15.032v16.03H328.64zm0 0"/>
        <path d="M328.64 215.422h15.032v16.031H328.64zm0 0"/>
    </g>
</svg>
