<?xml version="1.0" encoding="UTF-8" standalone="no"?>
<svg
   xmlns:dc="http://purl.org/dc/elements/1.1/"
   xmlns:cc="http://creativecommons.org/ns#"
   xmlns:rdf="http://www.w3.org/1999/02/22-rdf-syntax-ns#"
   xmlns:svg="http://www.w3.org/2000/svg"
   xmlns="http://www.w3.org/2000/svg"
   xmlns:sodipodi="http://sodipodi.sourceforge.net/DTD/sodipodi-0.dtd"
   xmlns:inkscape="http://www.inkscape.org/namespaces/inkscape"
   width="185mm"
   height="185mm"
   viewBox="0 0 185 185"
   version="1.1"
   id="svg8"
   inkscape:version="1.0.1 (3bc2e813f5, 2020-09-07)"
   sodipodi:docname="Wrong-Answer-Icon.svg">
  <defs
     id="defs2" />
  <sodipodi:namedview
     id="base"
     pagecolor="#ffffff"
     bordercolor="#666666"
     borderopacity="1.0"
     inkscape:pageopacity="0.0"
     inkscape:pageshadow="2"
     inkscape:zoom="0.49497475"
     inkscape:cx="348.14417"
     inkscape:cy="423.02318"
     inkscape:document-units="mm"
     inkscape:current-layer="layer1"
     inkscape:document-rotation="0"
     showgrid="false"
     inkscape:window-width="1851"
     inkscape:window-height="1057"
     inkscape:window-x="61"
     inkscape:window-y="-8"
     inkscape:window-maximized="1" />
  <metadata
     id="metadata5">
    <rdf:RDF>
      <cc:Work
         rdf:about="">
        <dc:format>image/svg+xml</dc:format>
        <dc:type
           rdf:resource="http://purl.org/dc/dcmitype/StillImage" />
        <dc:title></dc:title>
      </cc:Work>
    </rdf:RDF>
  </metadata>
  <g
     inkscape:label="Layer 1"
     inkscape:groupmode="layer"
     id="layer1"
     transform="translate(3.6248169,-54.802368)">
    <circle
       style="fill:#f9f9f7;fill-opacity:1;fill-rule:evenodd;stroke-width:0.79375"
       id="path855"
       cx="88.875183"
       cy="147.30237"
       r="92.5"
       inkscape:export-xdpi="91"
       inkscape:export-ydpi="91" />
    <path
       d="m 138.52425,181.90988 -34.71334,-34.84563 34.79271,-34.39584 c 1.42875,-1.42875 1.42875,-3.75708 0,-5.18583 l -9.89541,-9.948343 c -0.68792,-0.68791 -1.61396,-1.05833 -2.59292,-1.05833 -0.97896,0 -1.905,0.39687 -2.59292,1.05833 L 88.888414,131.82425 54.201544,97.560697 c -0.68792,-0.68792 -1.61396,-1.05833 -2.59292,-1.05833 -0.97896,0 -1.905,0.39687 -2.59291,1.05833 l -9.86896,9.948333 c -1.42875,1.42875 -1.42875,3.75709 0,5.18584 l 34.79271,34.39584 -34.68688,34.81917 c -0.68792,0.68791 -1.08479,1.61396 -1.08479,2.59291 0,0.97896 0.37042,1.905 1.08479,2.59292 l 9.89542,9.94833 c 0.71437,0.71438 1.64041,1.0848 2.59291,1.0848 0.92605,0 1.87855,-0.34396 2.59292,-1.0848 l 34.55458,-34.71333 34.581046,34.68688 c 0.71437,0.71437 1.64041,1.08479 2.59291,1.08479 0.92604,0 1.87854,-0.34396 2.59292,-1.08479 l 9.89542,-9.94834 c 0.68791,-0.68791 1.08479,-1.61396 1.08479,-2.59291 -0.0265,-0.9525 -0.42334,-1.87855 -1.11125,-2.56646 z"
       id="path833"
       style="fill:#e63946;fill-opacity:1;stroke-width:0.264583"
       inkscape:export-xdpi="91"
       inkscape:export-ydpi="91" />
  </g>
  <style
     type="text/css"
     id="style833">
	.st0{fill:#222A30;}
	.st1{fill:none;stroke:#222A30;stroke-width:2.0101;stroke-linejoin:round;stroke-miterlimit:10;}
	.st2{fill:#171715;}
	.st3{fill-rule:evenodd;clip-rule:evenodd;fill:#222A30;}
</style>
</svg>
